<?xml version="1.0" standalone="no"?>
<!DOCTYPE svg PUBLIC "-//W3C//DTD SVG 20010904//EN"
 "http://www.w3.org/TR/2001/REC-SVG-20010904/DTD/svg10.dtd">
<svg version="1.0" xmlns="http://www.w3.org/2000/svg"
 width="1172.000000pt" height="782.000000pt" viewBox="0 0 1172.000000 782.000000"
 preserveAspectRatio="xMidYMid meet">
<metadata>
Created by potrace 1.16, written by Peter Selinger 2001-2019
</metadata>
<g transform="translate(0.000000,782.000000) scale(0.100000,-0.100000)"
fill="#000000" stroke="none">
<path d="M0 6643 l0 -1177 70 -118 71 -118 -71 -118 c-63 -105 -70 -123 -70
-169 0 -47 7 -64 70 -168 39 -64 70 -121 70 -126 0 -6 -32 -63 -70 -128 -95
-158 -95 -169 1 -328 40 -65 72 -122 72 -128 0 -5 -32 -63 -72 -128 -96 -159
-96 -170 -1 -328 38 -65 70 -122 70 -128 0 -5 -31 -62 -70 -126 -63 -104 -70
-121 -70 -168 0 -46 7 -64 70 -169 l71 -118 -71 -118 -70 -118 0 -1332 0
-1332 1334 0 1333 0 72 120 72 120 149 0 149 0 72 -120 72 -120 225 2 226 3
70 118 71 117 155 0 155 0 71 -117 70 -118 224 0 224 0 70 118 71 117 155 0
155 0 71 -117 70 -118 225 -2 224 -3 70 120 70 120 155 0 155 0 70 -120 70
-120 226 0 226 0 72 120 72 120 149 0 149 0 72 -120 72 -120 2153 0 2154 0 0
1175 0 1175 -37 0 c-38 1 -38 1 -111 126 l-73 125 74 122 c71 118 74 122 110
125 36 3 37 4 37 43 0 38 -1 39 -38 39 -37 0 -38 1 -110 121 -39 66 -72 126
-72 132 1 7 33 66 73 132 71 116 75 120 110 123 35 3 37 5 37 38 0 33 -1 34
-38 34 -37 0 -37 0 -113 127 l-76 126 76 128 c76 128 76 128 114 129 36 0 37
1 37 34 0 33 -2 35 -37 38 -35 3 -41 8 -90 88 -29 47 -62 104 -75 126 l-22 42
75 126 c74 125 74 126 112 126 36 0 37 1 37 39 0 39 -1 40 -37 43 -36 3 -39 7
-111 126 l-73 122 73 123 c72 118 75 122 111 125 l37 3 0 1320 0 1319 -1377 0
-1378 -1 -68 -114 -68 -115 -149 0 -149 0 -68 115 -68 114 -232 1 -232 0 -68
-115 -68 -114 -155 -1 -155 0 -69 115 -68 115 -228 0 -228 0 -68 -115 -69
-115 -155 0 -155 0 -69 115 -68 115 -228 0 -228 0 -68 -115 -69 -115 -155 0
-155 0 -69 115 -69 115 -230 -2 -231 -3 -66 -110 -66 -110 -152 -3 -151 -3
-68 115 -68 115 -2117 1 -2118 0 0 -1177z m6306 1042 c40 -66 73 -127 73 -135
0 -8 -32 -69 -73 -135 l-72 -120 -154 0 -154 0 -72 120 c-41 66 -73 126 -74
134 0 11 116 214 143 249 7 9 48 12 161 10 l150 -3 72 -120z m-2078 -12 l73
-123 -73 -122 -74 -123 -154 0 -154 0 -73 122 -73 121 76 126 76 127 151 -3
151 -3 74 -122z m1040 6 c39 -66 72 -124 72 -129 0 -5 -33 -63 -72 -129 l-73
-121 -155 0 -155 0 -73 121 c-39 66 -72 124 -72 129 0 5 33 63 72 129 l73 121
155 0 155 0 73 -121z m2080 0 c39 -66 72 -124 72 -129 0 -5 -33 -63 -72 -129
l-73 -121 -155 0 -155 0 -73 121 c-39 66 -72 124 -72 129 0 5 33 63 72 129
l73 121 155 0 155 0 73 -121z m1039 -7 l74 -123 -74 -122 -73 -122 -154 0
-154 0 -73 122 -74 123 67 112 c37 62 72 119 77 126 7 9 48 12 161 10 l150 -3
73 -123z m-4679 -289 l73 -123 -73 -122 -74 -123 -154 0 -154 0 -73 122 -73
121 76 126 76 127 151 -3 151 -3 74 -122z m1040 6 c39 -66 72 -124 72 -129 0
-5 -34 -65 -76 -134 l-75 -126 -149 0 -149 0 -75 126 c-42 69 -76 128 -76 131
0 4 33 62 73 130 l72 123 155 0 155 0 73 -121z m1040 0 c39 -66 72 -126 72
-132 -1 -7 -33 -66 -74 -132 l-72 -120 -154 0 -154 0 -72 120 c-41 66 -73 125
-74 132 0 6 33 66 72 132 l73 121 155 0 155 0 73 -121z m1040 0 c39 -66 72
-126 72 -132 -1 -7 -33 -66 -74 -132 l-72 -120 -154 0 -154 0 -72 120 c-41 66
-73 125 -74 132 0 6 33 66 72 132 l73 121 155 0 155 0 73 -121z m1037 -5 l75
-126 -73 -121 -73 -122 -154 0 -154 0 -73 122 -73 121 75 126 76 126 149 0
149 0 76 -126z m-4680 -290 l76 -126 -73 -124 -73 -124 -154 3 -155 2 -72 120
c-40 66 -71 122 -70 125 2 3 36 60 76 128 l73 122 148 0 148 0 76 -126z m1043
5 c39 -66 72 -126 72 -132 0 -7 -33 -66 -72 -132 l-73 -120 -154 0 -155 0 -72
120 c-41 66 -73 125 -74 132 0 6 33 66 72 132 l73 121 155 0 155 0 73 -121z
m1040 0 c39 -66 72 -126 72 -132 -1 -7 -33 -66 -74 -132 l-72 -120 -154 0
-154 0 -72 120 c-41 66 -73 125 -74 132 0 6 33 66 72 132 l73 121 155 0 155 0
73 -121z m1040 -2 c39 -68 72 -127 72 -133 -1 -5 -33 -63 -74 -129 l-72 -120
-154 0 -154 0 -72 120 c-41 66 -73 124 -74 129 0 6 33 65 73 133 l72 123 155
0 155 0 73 -123z m1037 -3 l75 -126 -73 -121 -73 -122 -154 0 -153 0 -74 121
-74 121 76 127 76 126 149 0 149 0 76 -126z m-4680 -290 l76 -126 -73 -124
-73 -124 -155 0 -155 0 -70 121 c-38 66 -69 126 -67 132 2 6 35 64 74 129 l71
118 148 0 148 0 76 -126z m1043 3 c39 -68 72 -127 72 -133 -1 -5 -33 -63 -74
-129 l-72 -120 -154 0 -154 0 -72 120 c-41 66 -73 124 -74 129 0 6 33 65 73
133 l72 123 155 0 155 0 73 -123z m1040 2 c39 -66 72 -125 72 -132 0 -6 -33
-66 -72 -134 l-73 -123 -155 3 -154 2 -53 85 c-29 47 -62 104 -75 126 l-22 42
75 126 74 126 155 0 155 0 73 -121z m1040 -2 c39 -68 72 -127 72 -133 -1 -5
-33 -63 -74 -129 l-72 -120 -154 0 -154 0 -72 120 c-41 66 -73 124 -74 129 0
6 33 65 73 133 l72 123 155 0 155 0 73 -123z m1037 -3 l76 -126 -73 -124 -73
-124 -155 0 -155 0 -73 124 -73 123 77 127 77 126 148 0 148 0 76 -126z
m-4681 -290 c42 -69 76 -127 76 -129 0 -2 -34 -60 -76 -129 l-75 -126 -148 0
-148 0 -73 122 c-41 67 -73 127 -73 133 0 6 32 66 73 133 l73 122 148 0 148 0
75 -126z m1044 3 c39 -68 72 -127 72 -132 0 -5 -33 -64 -72 -132 l-73 -123
-154 3 -155 2 -73 120 c-40 66 -72 124 -73 129 0 8 122 217 143 244 7 9 51 12
161 12 l151 0 73 -123z m1042 -5 l76 -127 -76 -127 -75 -127 -155 -1 -155 0
-72 123 c-40 68 -73 127 -73 132 0 5 33 64 73 132 l72 123 155 0 155 -1 75
-127z m1030 16 c36 -61 69 -119 73 -128 7 -13 -11 -51 -65 -144 l-73 -126
-154 2 -155 3 -73 120 c-40 66 -72 124 -73 129 0 8 122 217 143 244 7 9 51 12
161 12 l151 0 65 -112z m1040 -10 c41 -67 73 -127 73 -133 0 -6 -32 -66 -73
-133 l-73 -122 -147 0 -147 0 -73 122 c-41 67 -73 127 -73 133 0 6 32 66 73
133 l73 122 147 0 147 0 73 -122z m-3633 -293 c40 -66 72 -124 73 -129 0 -6
-33 -65 -72 -133 l-73 -123 -155 0 -155 0 -72 123 c-40 68 -73 127 -73 131 0
8 124 219 143 244 7 9 48 12 160 10 l151 -3 73 -120z m1044 -4 l76 -128 -76
-126 -76 -127 -155 0 -155 0 -72 123 c-40 68 -73 127 -73 131 0 8 124 219 143
244 7 9 51 12 161 12 l151 -1 76 -128z m1036 4 c40 -66 72 -124 73 -129 0 -6
-33 -65 -72 -133 l-73 -123 -155 0 -155 0 -72 123 c-40 68 -73 127 -73 131 0
8 124 219 143 244 7 9 48 12 160 10 l151 -3 73 -120z m-3119 -9 l73 -124 -76
-126 -76 -126 -148 0 -148 0 -73 122 c-41 67 -73 127 -73 133 0 8 74 136 129
223 14 21 20 22 167 22 l152 0 73 -124z m4160 0 l73 -124 -76 -126 -76 -126
-148 0 -149 0 -76 126 -77 126 73 124 73 124 155 0 155 0 73 -124z m-3641
-281 c40 -66 72 -125 73 -132 0 -6 -33 -66 -72 -132 l-73 -121 -155 0 -155 0
-72 123 c-40 68 -73 126 -73 130 0 3 34 63 76 132 l76 126 151 -3 151 -3 73
-120z m1041 0 c39 -66 72 -125 72 -132 0 -6 -33 -66 -72 -132 l-73 -121 -155
0 -155 0 -73 121 c-39 66 -72 125 -72 131 0 9 121 217 143 246 7 9 48 12 161
10 l151 -3 73 -120z m1039 0 c40 -66 72 -124 73 -129 0 -6 -33 -65 -72 -133
l-73 -123 -155 0 -155 0 -72 123 c-40 68 -73 126 -73 129 0 6 101 180 136 236
14 22 18 22 166 20 l152 -3 73 -120z m-3119 -10 l74 -124 -74 -123 -74 -123
-150 -3 -151 -3 -76 127 -77 127 67 111 c36 61 70 117 76 124 7 9 51 12 161
12 l151 0 73 -125z m4160 1 l73 -124 -76 -126 -76 -126 -149 0 -149 0 -76 126
-75 126 66 111 c37 62 71 118 77 125 7 9 51 12 161 12 l151 0 73 -124z m-3641
-281 c40 -66 72 -126 73 -133 0 -8 -32 -67 -71 -133 l-72 -119 -156 0 -156 0
-73 121 c-39 66 -72 124 -72 129 0 8 124 224 143 248 7 9 48 12 160 10 l151
-3 73 -120z m1040 0 c40 -66 72 -126 73 -133 0 -8 -32 -67 -71 -133 l-72 -119
-156 0 -156 0 -73 121 c-39 66 -72 125 -72 131 0 9 121 217 143 246 7 9 48 12
160 10 l151 -3 73 -120z m1039 -3 c41 -68 74 -128 74 -132 0 -5 -33 -63 -72
-129 l-73 -121 -155 0 -155 0 -72 123 c-40 68 -73 126 -73 130 0 3 34 63 76
132 l76 126 150 -3 151 -3 73 -123z m-3118 -7 l74 -124 -74 -123 -74 -123
-151 -3 -151 -3 -76 126 -75 125 75 125 75 125 152 0 152 0 73 -125z m4160 -2
l73 -123 -73 -122 -74 -123 -151 -3 -151 -3 -76 127 -76 126 66 111 c37 62 72
118 77 125 7 9 48 12 160 10 l151 -3 74 -122z m-2601 -268 c40 -66 72 -127 72
-135 0 -8 -32 -69 -72 -135 l-73 -120 -151 -3 -151 -3 -76 126 c-42 69 -76
130 -76 135 0 5 34 66 76 135 l76 126 151 -3 151 -3 73 -120z m-1038 -6 c39
-67 71 -125 71 -130 0 -4 -33 -62 -72 -128 l-73 -121 -155 0 -155 0 -73 125
c-41 68 -72 128 -70 133 1 5 34 61 73 125 l70 117 156 0 157 0 71 -121z m2079
0 c39 -66 72 -124 72 -129 0 -5 -33 -63 -72 -129 l-73 -121 -155 0 -155 0 -73
121 c-39 66 -72 124 -72 129 0 5 33 63 72 129 l73 121 155 0 155 0 73 -121z
m1040 -6 l73 -123 -73 -122 -74 -123 -151 -3 -151 -3 -76 127 -76 126 66 111
c37 62 72 118 77 125 7 9 48 12 160 10 l151 -3 74 -122z m-3640 -284 c39 -66
72 -126 72 -132 -1 -7 -33 -66 -73 -132 l-73 -120 -151 -3 -151 -3 -76 126
c-42 69 -76 129 -76 132 0 4 33 62 73 130 l72 123 155 0 155 0 73 -121z m1041
2 c39 -66 71 -125 71 -133 -1 -7 -33 -67 -73 -133 l-73 -120 -151 -3 -151 -3
-76 126 c-42 69 -76 130 -76 135 0 5 33 63 72 129 l73 121 156 0 156 0 72
-119z m1040 0 c39 -66 71 -125 71 -133 -1 -7 -33 -67 -74 -133 l-72 -120 -154
0 -154 0 -72 120 c-41 66 -73 125 -74 132 0 6 33 66 72 132 l73 121 156 0 156
0 72 -119z m1039 -8 l73 -123 -73 -122 -74 -123 -154 0 -154 0 -73 122 -73
121 76 126 76 127 151 -3 151 -3 74 -122z m-2597 -290 l76 -127 -76 -125 -76
-126 -154 0 -155 0 -72 120 c-41 66 -73 124 -74 129 0 6 33 65 73 133 l72 123
155 0 155 0 76 -127z m1037 6 c39 -66 72 -126 72 -132 -1 -7 -33 -66 -73 -132
l-73 -120 -151 -3 -151 -3 -76 126 c-42 69 -76 129 -76 132 0 4 33 62 73 130
l72 123 155 0 155 0 73 -121z m1037 -5 l76 -126 -73 -124 -73 -124 -154 3
-155 2 -73 122 -73 121 75 126 76 126 149 0 149 0 76 -126z m8315 -6 c40 -68
74 -125 76 -128 1 -3 -30 -59 -70 -125 l-72 -120 -155 -2 -154 -3 -73 124 -73
124 76 126 76 126 148 0 148 0 73 -122z m-10909 -285 l76 -126 -76 -129 -76
-128 -154 3 -155 2 -73 120 c-40 66 -72 124 -73 129 0 6 33 65 73 133 l72 123
155 0 155 0 76 -127z m1037 4 c39 -68 72 -127 72 -133 -1 -5 -33 -63 -74 -129
l-72 -120 -154 0 -154 0 -72 120 c-41 66 -73 124 -74 128 0 10 100 184 132
230 l19 27 152 0 152 0 73 -123z m1037 -3 l76 -126 -73 -124 -73 -124 -154 3
-155 2 -72 120 c-40 66 -71 122 -70 125 2 3 36 60 76 128 l73 122 148 0 148 0
76 -126z m8315 -6 c40 -68 74 -125 76 -128 1 -3 -30 -59 -70 -125 l-72 -120
-155 -2 -154 -3 -73 124 -73 124 76 126 76 126 148 0 148 0 73 -122z m-9872
-281 c39 -68 72 -127 72 -132 0 -5 -33 -64 -72 -132 l-73 -123 -154 3 -155 2
-73 120 c-40 66 -72 124 -73 129 0 8 122 217 143 244 7 9 51 12 161 12 l151 0
73 -123z m1037 -3 c42 -70 75 -130 73 -134 -2 -4 -34 -59 -73 -123 l-70 -117
-155 0 -155 1 -69 116 c-38 65 -69 122 -69 128 0 6 32 66 73 133 l73 122 148
0 148 0 76 -126z m8315 -6 c41 -67 73 -127 73 -133 0 -6 -32 -66 -73 -133
l-73 -122 -147 0 -148 0 -76 129 -77 129 76 126 76 126 148 0 148 0 73 -122z
m1047 -3 c40 -66 72 -124 72 -130 0 -5 -32 -64 -72 -130 l-73 -120 -155 -2
-154 -3 -72 123 c-40 68 -73 127 -73 132 0 5 33 64 73 132 l72 123 154 -3 155
-2 73 -120z m-10916 -284 l76 -128 -76 -126 -76 -127 -155 0 -155 0 -72 123
c-40 68 -73 127 -73 131 0 8 124 219 143 244 7 9 51 12 161 12 l151 -1 76
-128z m1037 -5 l73 -124 -76 -126 -76 -126 -148 0 -148 0 -73 122 c-41 67 -73
127 -73 133 0 8 74 136 129 223 14 21 20 22 167 22 l152 0 73 -124z m9358 -4
c41 -68 74 -127 74 -130 -1 -4 -33 -61 -73 -127 l-73 -120 -155 -2 -154 -3
-72 123 c-40 68 -73 127 -73 131 0 9 67 124 117 204 l34 53 151 -3 151 -3 73
-123z m-1040 -7 c40 -66 71 -122 70 -125 -2 -3 -36 -60 -76 -127 l-73 -123
-148 0 -148 0 -76 126 -76 126 73 124 73 124 154 -3 155 -2 72 -120z m-8838
-279 l73 -124 -76 -126 -76 -126 -148 0 -148 0 -73 122 c-41 67 -73 127 -73
133 0 8 74 136 129 223 14 21 20 22 167 22 l152 0 73 -124z m9356 -2 c42 -69
76 -128 76 -131 0 -4 -33 -62 -72 -130 l-73 -123 -155 0 -155 0 -73 121 c-39
66 -72 125 -72 131 0 9 120 217 143 246 7 9 51 12 158 12 l148 0 75 -126z
m1043 1 c40 -66 72 -124 73 -129 0 -6 -33 -65 -72 -133 l-73 -123 -155 0 -155
0 -76 127 -76 127 69 115 c39 64 75 122 80 129 8 9 49 12 161 10 l151 -3 73
-120z m-2080 -12 l73 -121 -75 -126 -76 -126 -149 0 -149 0 -75 125 -76 126
73 124 72 124 154 -2 155 -2 73 -122z m-8839 -278 l74 -124 -74 -123 -74 -123
-151 -3 -151 -3 -76 126 -76 126 76 125 76 124 151 0 152 0 73 -125z m9356 -1
c42 -69 76 -128 76 -131 0 -4 -33 -62 -72 -130 l-73 -123 -155 0 -155 0 -73
121 c-39 66 -72 125 -72 131 0 9 120 217 143 246 7 9 51 12 158 12 l148 0 75
-126z m1040 0 c42 -69 76 -129 76 -134 0 -5 -33 -63 -72 -129 l-73 -121 -156
0 -156 0 -72 119 c-39 66 -71 125 -71 131 0 11 119 216 143 248 7 9 51 12 158
12 l148 0 75 -126z m-2077 -11 l73 -121 -75 -126 -76 -126 -149 0 -149 0 -76
126 -75 126 66 111 c37 62 72 118 77 125 7 9 48 12 160 10 l151 -3 73 -122z
m517 -279 c42 -69 76 -129 76 -134 0 -5 -34 -66 -76 -135 l-76 -126 -151 3
-151 3 -73 120 c-40 66 -72 126 -73 134 0 11 116 214 143 249 7 9 51 12 158
12 l148 0 75 -126z m1040 0 c42 -69 76 -129 76 -134 0 -5 -34 -66 -76 -135
l-76 -126 -151 3 -151 3 -73 120 c-40 66 -72 126 -73 134 0 11 116 214 143
249 7 9 51 12 158 12 l148 0 75 -126z m1040 0 c42 -69 76 -129 76 -134 0 -5
-34 -66 -76 -135 l-76 -126 -151 3 -151 3 -73 120 c-40 66 -72 126 -73 134 0
11 116 214 143 249 7 9 51 12 158 12 l148 0 75 -126z m-3117 -13 l73 -123 -73
-122 -73 -121 -154 0 -154 0 -73 122 -74 123 67 112 c37 62 72 119 77 126 7 9
47 12 160 10 l150 -3 74 -124z m-522 -287 l75 -126 -73 -121 -73 -122 -154 0
-154 0 -73 122 -73 121 75 126 76 126 149 0 149 0 76 -126z m1043 3 c39 -68
72 -126 72 -130 0 -3 -34 -63 -76 -132 l-76 -126 -151 3 -151 3 -73 120 c-40
66 -72 125 -73 132 0 6 33 66 72 132 l73 121 155 0 155 0 73 -123z m1040 2
c39 -66 72 -126 72 -132 -1 -7 -33 -66 -74 -132 l-72 -120 -154 0 -154 0 -72
120 c-41 66 -73 126 -74 133 0 8 32 67 71 133 l72 119 156 0 156 0 73 -121z
m1040 -2 c39 -68 72 -126 72 -130 0 -3 -34 -63 -76 -132 l-76 -126 -151 3
-151 3 -73 120 c-40 66 -72 125 -73 132 0 6 33 66 72 132 l73 121 155 0 155 0
73 -123z m-3643 -283 l75 -126 -73 -121 -73 -122 -154 0 -154 0 -73 122 -73
121 75 126 76 126 149 0 149 0 76 -126z m1043 3 c39 -68 72 -126 72 -130 0 -3
-34 -63 -76 -132 l-76 -126 -151 3 -151 3 -73 120 c-40 66 -72 124 -73 129 0
5 33 65 72 133 l73 123 155 0 155 0 73 -123z m1040 2 c39 -66 72 -126 72 -132
-1 -7 -33 -66 -74 -132 l-72 -120 -155 0 -154 0 -72 120 c-40 66 -73 125 -73
132 0 6 33 66 72 132 l73 121 155 0 155 0 73 -121z m1040 -2 c39 -68 72 -126
72 -130 0 -3 -34 -63 -76 -132 l-76 -126 -151 3 -151 3 -73 120 c-40 66 -72
125 -73 132 0 6 33 66 72 132 l73 121 155 0 155 0 73 -123z m1025 16 c35 -60
69 -117 75 -128 8 -17 -2 -40 -62 -140 l-72 -120 -155 -2 -154 -3 -73 124 -73
124 76 126 76 126 149 0 149 0 64 -107z m-4668 -309 l76 -126 -73 -124 -73
-124 -155 0 -155 1 -69 116 c-38 65 -69 122 -69 128 0 6 32 66 72 133 l72 122
149 0 149 0 76 -126z m1043 3 c39 -68 72 -127 72 -133 -1 -5 -33 -63 -74 -129
l-72 -120 -154 0 -154 0 -72 120 c-41 66 -73 124 -74 129 0 6 33 65 73 133
l72 123 155 0 155 0 73 -123z m1040 0 c39 -68 72 -127 72 -133 -1 -5 -33 -63
-73 -129 l-73 -120 -155 -2 -154 -3 -76 128 -76 129 76 126 76 127 155 0 155
0 73 -123z m1040 -2 c39 -66 72 -124 72 -130 -1 -5 -33 -64 -74 -130 l-72
-120 -154 0 -154 0 -72 120 c-41 66 -73 124 -74 129 0 6 33 65 73 133 l72 123
155 -3 155 -2 73 -120z m1032 3 c40 -68 74 -125 76 -128 1 -3 -30 -59 -70
-125 l-72 -120 -155 -2 -154 -3 -73 124 -73 124 76 126 76 126 148 0 148 0 73
-122z m-4680 -290 c41 -67 73 -127 73 -133 0 -6 -31 -63 -69 -128 l-69 -116
-155 0 -155 0 -69 116 c-38 65 -69 122 -69 128 0 6 32 66 73 133 l73 122 147
0 147 0 73 -122z m1047 -3 c40 -66 72 -124 72 -130 0 -5 -32 -64 -73 -130
l-72 -120 -154 0 -154 0 -72 120 c-41 66 -73 124 -74 129 0 6 33 65 73 133
l72 123 154 -3 155 -2 73 -120z m1041 2 c39 -68 72 -127 72 -132 0 -5 -33 -64
-72 -132 l-73 -123 -155 0 -155 1 -75 127 -76 127 76 127 75 127 155 1 155 0
73 -123z m1039 -2 c40 -66 72 -124 72 -130 0 -5 -32 -64 -72 -130 l-73 -120
-155 -2 -154 -3 -72 123 c-40 68 -73 127 -73 132 0 5 33 64 73 132 l72 123
154 -3 155 -2 73 -120z m1033 3 c41 -67 73 -127 73 -133 0 -6 -31 -63 -69
-128 l-69 -116 -155 -1 -156 0 -69 117 c-37 64 -68 122 -68 128 0 6 32 66 73
133 l73 122 147 0 147 0 73 -122z m-3633 -293 c40 -66 72 -124 73 -129 0 -6
-33 -65 -72 -133 l-73 -123 -155 0 -155 0 -72 123 c-40 68 -73 127 -73 131 0
8 124 219 143 244 7 9 48 12 160 10 l151 -3 73 -120z m1020 35 c29 -47 62
-104 75 -126 l22 -42 -75 -126 -74 -126 -155 0 -155 0 -76 127 -76 126 76 129
76 128 155 -3 154 -2 53 -85z m1060 -35 c40 -66 72 -124 73 -130 0 -5 -33 -64
-73 -130 l-73 -120 -154 -2 -155 -3 -72 123 c-40 68 -73 127 -73 131 0 8 124
219 143 244 7 9 48 12 160 10 l151 -3 73 -120z m-3119 -9 l73 -124 -76 -126
-76 -126 -148 0 -148 0 -73 122 c-41 67 -73 127 -73 133 0 6 31 63 69 128 l69
116 155 1 155 0 73 -124z m4156 7 c38 -65 69 -122 69 -128 0 -6 -32 -66 -73
-133 l-73 -122 -148 0 -148 0 -76 126 -76 126 73 124 73 124 155 0 155 -1 69
-116z m-3637 -288 c40 -66 72 -125 73 -132 0 -6 -33 -66 -72 -132 l-73 -121
-155 0 -155 0 -73 121 c-39 66 -72 125 -72 131 0 9 121 217 143 246 7 9 48 12
160 10 l151 -3 73 -120z m1040 0 c40 -66 72 -125 73 -132 0 -6 -33 -66 -72
-132 l-73 -121 -155 0 -155 0 -73 121 c-39 66 -72 125 -72 132 0 11 54 106
117 205 l33 53 152 -3 152 -3 73 -120z m1040 0 c40 -66 72 -125 73 -132 0 -6
-33 -66 -72 -132 l-73 -121 -155 0 -155 0 -73 121 c-39 66 -72 125 -72 132 0
11 54 106 117 205 l33 53 152 -3 152 -3 73 -120z m-3119 -9 l73 -124 -76 -126
-76 -126 -149 0 -149 0 -76 126 -75 126 66 111 c37 62 71 118 77 125 7 9 51
12 161 12 l151 0 73 -124z m4159 -3 l73 -121 -75 -126 -76 -126 -149 0 -149 0
-76 126 -76 126 73 124 73 124 154 -3 155 -2 73 -122z m-3643 -279 c42 -69 76
-128 76 -131 0 -4 -33 -62 -72 -130 l-73 -123 -155 0 -155 0 -70 118 c-38 64
-71 122 -73 128 -2 6 31 68 73 138 l76 126 149 0 149 0 75 -126z m1043 1 c40
-66 72 -125 73 -132 0 -6 -33 -66 -72 -132 l-73 -121 -155 0 -155 0 -73 121
c-39 66 -72 125 -72 131 0 9 121 217 143 246 7 9 48 12 160 10 l151 -3 73
-120z m1037 -1 c42 -69 76 -128 76 -131 0 -4 -33 -62 -72 -130 l-73 -123 -155
0 -155 0 -73 121 c-39 66 -72 125 -72 131 0 9 120 217 143 246 7 9 51 12 158
12 l148 0 75 -126z m-3117 -11 l73 -121 -75 -126 -76 -126 -149 0 -149 0 -76
126 -75 126 66 111 c37 62 72 118 77 125 7 9 48 12 160 10 l151 -3 73 -122z
m4160 0 l73 -121 -76 -126 -76 -127 -151 3 -151 3 -73 123 -73 124 66 111 c37
62 72 118 77 125 7 9 48 12 160 10 l151 -3 73 -122z m-2600 -278 c40 -66 72
-125 73 -132 0 -6 -33 -67 -73 -135 l-73 -123 -154 0 -154 0 -72 120 c-41 66
-73 126 -74 134 0 11 116 214 143 249 7 9 48 12 160 10 l151 -3 73 -120z
m-2079 -12 l73 -123 -73 -122 -74 -123 -151 -3 -151 -3 -76 127 -76 126 66
111 c37 62 72 118 77 125 7 9 48 12 160 10 l151 -3 74 -122z m1040 6 c39 -66
72 -124 72 -129 0 -5 -33 -63 -72 -129 l-73 -121 -155 0 -155 0 -73 121 c-39
66 -72 124 -72 129 0 5 33 63 72 129 l73 121 155 0 155 0 73 -121z m2080 0
c39 -66 72 -124 72 -129 0 -5 -33 -63 -72 -129 l-73 -121 -155 0 -155 0 -73
121 c-39 66 -72 124 -72 129 0 5 33 63 72 129 l73 121 155 0 155 0 73 -121z
m1039 -6 l73 -121 -73 -124 -73 -123 -154 0 -154 0 -73 122 -74 123 67 112
c37 62 72 119 77 126 7 9 48 12 160 10 l151 -3 73 -122z m-4679 -290 l73 -123
-73 -122 -74 -123 -154 0 -154 0 -73 122 -73 121 76 126 76 127 151 -3 151 -3
74 -122z m1040 6 c39 -66 72 -124 72 -129 0 -5 -34 -65 -76 -134 l-75 -126
-149 0 -149 0 -76 126 c-42 70 -75 132 -73 138 2 6 35 64 73 129 l70 117 155
0 155 0 73 -121z m1040 0 c39 -66 72 -126 72 -132 -1 -7 -33 -66 -74 -132
l-72 -120 -154 0 -154 0 -72 120 c-41 66 -73 125 -74 132 0 6 33 66 72 132
l73 121 155 0 155 0 73 -121z m1040 -2 c39 -68 72 -126 72 -130 0 -3 -34 -62
-76 -131 l-75 -126 -149 0 -149 0 -75 126 c-42 69 -76 129 -76 134 0 5 33 63
72 129 l73 121 155 0 155 0 73 -123z m1037 -3 l75 -126 -73 -121 -73 -122
-154 0 -154 0 -73 122 -73 121 66 114 c37 62 71 119 77 126 7 8 51 12 158 12
l148 0 76 -126z"/>
</g>
</svg>
