<?xml version="1.0" encoding="UTF-8"?>
<!DOCTYPE svg PUBLIC "-//W3C//DTD SVG 1.1//EN" "http://www.w3.org/Graphics/SVG/1.1/DTD/svg11.dtd">
<svg xmlns="http://www.w3.org/2000/svg" xmlns:xlink="http://www.w3.org/1999/xlink" version="1.1" width="1231px" height="821px" viewBox="-0.5 -0.5 1231 821" style="background-color: rgb(255, 255, 255);"><defs/><g><rect x="0" y="0" width="1230" height="820" fill="#2642b3" stroke="#365eff" pointer-events="all"/><path d="M 225 37 L 255 37 L 270 62 L 255 87 L 225 87 L 210 62 Z" fill="#3b62ff" stroke="#365eff" stroke-miterlimit="10" pointer-events="all"/><path d="M 275 9 L 305 9 L 320 34 L 305 59 L 275 59 L 260 34 Z" fill="#3b62ff" stroke="#365eff" stroke-miterlimit="10" pointer-events="all"/><path d="M 275 65 L 305 65 L 320 90 L 305 115 L 275 115 L 260 90 Z" fill="#4d70ff" stroke="#365eff" stroke-miterlimit="10" pointer-events="all"/><path d="M 325 37 L 355 37 L 370 62 L 355 87 L 325 87 L 310 62 Z" fill="#4d70ff" stroke="#365eff" stroke-miterlimit="10" pointer-events="all"/><path d="M 375 9 L 405 9 L 420 34 L 405 59 L 375 59 L 360 34 Z" fill="#4d70ff" stroke="#365eff" stroke-miterlimit="10" pointer-events="all"/><path d="M 375 65 L 405 65 L 420 90 L 405 115 L 375 115 L 360 90 Z" fill="#5482ff" stroke="#365eff" stroke-miterlimit="10" pointer-events="all"/><path d="M 425 37 L 455 37 L 470 62 L 455 87 L 425 87 L 410 62 Z" fill="#5482ff" stroke="#365eff" stroke-miterlimit="10" pointer-events="all"/><path d="M 475 9 L 505 9 L 520 34 L 505 59 L 475 59 L 460 34 Z" fill="#5482ff" stroke="#365eff" stroke-miterlimit="10" pointer-events="all"/><path d="M 575 65 L 605 65 L 620 90 L 605 115 L 575 115 L 560 90 Z" fill="#80a6ff" stroke="#365eff" stroke-miterlimit="10" pointer-events="all"/><path d="M 125 37 L 155 37 L 170 62 L 155 87 L 125 87 L 110 62 Z" fill="#3053e0" stroke="#365eff" stroke-miterlimit="10" pointer-events="all"/><path d="M 175 9 L 205 9 L 220 34 L 205 59 L 175 59 L 160 34 Z" fill="#3053e0" stroke="#365eff" stroke-miterlimit="10" pointer-events="all"/><path d="M 175 65 L 205 65 L 220 90 L 205 115 L 175 115 L 160 90 Z" fill="#3b62ff" stroke="#365eff" stroke-miterlimit="10" pointer-events="all"/><path d="M 25 37 L 55 37 L 70 62 L 55 87 L 25 87 L 10 62 Z" fill="#2642b3" stroke="#365eff" stroke-miterlimit="10" pointer-events="all"/><path d="M 75 9 L 105 9 L 120 34 L 105 59 L 75 59 L 60 34 Z" fill="#2642b3" stroke="#365eff" stroke-miterlimit="10" pointer-events="all"/><path d="M 75 65 L 105 65 L 120 90 L 105 115 L 75 115 L 60 90 Z" fill="#3053e0" stroke="#365eff" stroke-miterlimit="10" pointer-events="all"/><path d="M 175 121 L 205 121 L 220 146 L 205 171 L 175 171 L 160 146 Z" fill="#4d70ff" stroke="#365eff" stroke-miterlimit="10" pointer-events="all"/><path d="M 225 93 L 255 93 L 270 118 L 255 143 L 225 143 L 210 118 Z" fill="#4d70ff" stroke="#365eff" stroke-miterlimit="10" pointer-events="all"/><path d="M 225 149 L 255 149 L 270 174 L 255 199 L 225 199 L 210 174 Z" fill="#5482ff" stroke="#365eff" stroke-miterlimit="10" pointer-events="all"/><path d="M 275 121 L 305 121 L 320 146 L 305 171 L 275 171 L 260 146 Z" fill="#5482ff" stroke="#365eff" stroke-miterlimit="10" pointer-events="all"/><path d="M 325 93 L 355 93 L 370 118 L 355 143 L 325 143 L 310 118 Z" fill="#5482ff" stroke="#365eff" stroke-miterlimit="10" pointer-events="all"/><path d="M 425 149 L 455 149 L 470 174 L 455 199 L 425 199 L 410 174 Z" fill="#80a6ff" stroke="#365eff" stroke-miterlimit="10" pointer-events="all"/><path d="M 475 121 L 505 121 L 520 146 L 505 171 L 475 171 L 460 146 Z" fill="#80a6ff" stroke="#365eff" stroke-miterlimit="10" pointer-events="all"/><path d="M 525 93 L 555 93 L 570 118 L 555 143 L 525 143 L 510 118 Z" fill="#80a6ff" stroke="#365eff" stroke-miterlimit="10" pointer-events="all"/><path d="M 525 149 L 555 149 L 570 174 L 555 199 L 525 199 L 510 174 Z" fill="#6e94ff" stroke="#365eff" stroke-miterlimit="10" pointer-events="all"/><path d="M 75 121 L 105 121 L 120 146 L 105 171 L 75 171 L 60 146 Z" fill="#3b62ff" stroke="#365eff" stroke-miterlimit="10" pointer-events="all"/><path d="M 125 93 L 155 93 L 170 118 L 155 143 L 125 143 L 110 118 Z" fill="#3b62ff" stroke="#365eff" stroke-miterlimit="10" pointer-events="all"/><path d="M 125 149 L 155 149 L 170 174 L 155 199 L 125 199 L 110 174 Z" fill="#4d70ff" stroke="#365eff" stroke-miterlimit="10" pointer-events="all"/><path d="M 575 121 L 605 121 L 620 146 L 605 171 L 575 171 L 560 146 Z" fill="#6e94ff" stroke="#365eff" stroke-miterlimit="10" pointer-events="all"/><path d="M 25 93 L 55 93 L 70 118 L 55 143 L 25 143 L 10 118 Z" fill="#3053e0" stroke="#365eff" stroke-miterlimit="10" pointer-events="all"/><path d="M 25 149 L 55 149 L 70 174 L 55 199 L 25 199 L 10 174 Z" fill="#3b62ff" stroke="#365eff" stroke-miterlimit="10" pointer-events="all"/><path d="M 275 233 L 305 233 L 320 258 L 305 283 L 275 283 L 260 258 Z" fill="#80a6ff" stroke="#365eff" stroke-miterlimit="10" pointer-events="all"/><path d="M 325 205 L 355 205 L 370 230 L 355 255 L 325 255 L 310 230 Z" fill="#80a6ff" stroke="#365eff" stroke-miterlimit="10" pointer-events="all"/><path d="M 375 177 L 405 177 L 420 202 L 405 227 L 375 227 L 360 202 Z" fill="#80a6ff" stroke="#365eff" stroke-miterlimit="10" pointer-events="all"/><path d="M 375 233 L 405 233 L 420 258 L 405 283 L 375 283 L 360 258 Z" fill="#6e94ff" stroke="#365eff" stroke-miterlimit="10" pointer-events="all"/><path d="M 425 205 L 455 205 L 470 230 L 455 255 L 425 255 L 410 230 Z" fill="#6e94ff" stroke="#365eff" stroke-miterlimit="10" pointer-events="all"/><path d="M 475 177 L 505 177 L 520 202 L 505 227 L 475 227 L 460 202 Z" fill="#6e94ff" stroke="#365eff" stroke-miterlimit="10" pointer-events="all"/><path d="M 475 233 L 505 233 L 520 258 L 505 283 L 475 283 L 460 258 Z" fill="#5482ff" stroke="#365eff" stroke-miterlimit="10" pointer-events="all"/><path d="M 525 205 L 555 205 L 570 230 L 555 255 L 525 255 L 510 230 Z" fill="#5482ff" stroke="#365eff" stroke-miterlimit="10" pointer-events="all"/><path d="M 575 177 L 605 177 L 620 202 L 605 227 L 575 227 L 560 202 Z" fill="#5482ff" stroke="#365eff" stroke-miterlimit="10" pointer-events="all"/><path d="M 575 233 L 605 233 L 620 258 L 605 283 L 575 283 L 560 258 Z" fill="#4d70ff" stroke="#365eff" stroke-miterlimit="10" pointer-events="all"/><path d="M 125 205 L 155 205 L 170 230 L 155 255 L 125 255 L 110 230 Z" fill="#5482ff" stroke="#365eff" stroke-miterlimit="10" pointer-events="all"/><path d="M 175 177 L 205 177 L 220 202 L 205 227 L 175 227 L 160 202 Z" fill="#5482ff" stroke="#365eff" stroke-miterlimit="10" pointer-events="all"/><path d="M 25 205 L 55 205 L 70 230 L 55 255 L 25 255 L 10 230 Z" fill="#4d70ff" stroke="#365eff" stroke-miterlimit="10" pointer-events="all"/><path d="M 75 177 L 105 177 L 120 202 L 105 227 L 75 227 L 60 202 Z" fill="#4d70ff" stroke="#365eff" stroke-miterlimit="10" pointer-events="all"/><path d="M 75 233 L 105 233 L 120 258 L 105 283 L 75 283 L 60 258 Z" fill="#5482ff" stroke="#365eff" stroke-miterlimit="10" pointer-events="all"/><path d="M 175 288 L 205 288 L 220 313 L 205 338 L 175 338 L 160 313 Z" fill="#80a6ff" stroke="#365eff" stroke-miterlimit="10" pointer-events="all"/><path d="M 225 260 L 255 260 L 270 285 L 255 310 L 225 310 L 210 285 Z" fill="#80a6ff" stroke="#365eff" stroke-miterlimit="10" pointer-events="all"/><path d="M 225 316 L 255 316 L 270 341 L 255 366 L 225 366 L 210 341 Z" fill="#6e94ff" stroke="#365eff" stroke-miterlimit="10" pointer-events="all"/><path d="M 275 288 L 305 288 L 320 313 L 305 338 L 275 338 L 260 313 Z" fill="#80a6ff" stroke="#365eff" stroke-miterlimit="10" pointer-events="all"/><path d="M 325 260 L 355 260 L 370 285 L 355 310 L 325 310 L 310 285 Z" fill="#6e94ff" stroke="#365eff" stroke-miterlimit="10" pointer-events="all"/><path d="M 325 316 L 355 316 L 370 341 L 355 366 L 325 366 L 310 341 Z" fill="#5482ff" stroke="#365eff" stroke-miterlimit="10" pointer-events="all"/><path d="M 375 288 L 405 288 L 420 313 L 405 338 L 375 338 L 360 313 Z" fill="#5482ff" stroke="#365eff" stroke-miterlimit="10" pointer-events="all"/><path d="M 425 260 L 455 260 L 470 285 L 455 310 L 425 310 L 410 285 Z" fill="#5482ff" stroke="#365eff" stroke-miterlimit="10" pointer-events="all"/><path d="M 425 316 L 455 316 L 470 341 L 455 366 L 425 366 L 410 341 Z" fill="#4d70ff" stroke="#365eff" stroke-miterlimit="10" pointer-events="all"/><path d="M 475 288 L 505 288 L 520 313 L 505 338 L 475 338 L 460 313 Z" fill="#4d70ff" stroke="#365eff" stroke-miterlimit="10" pointer-events="all"/><path d="M 525 260 L 555 260 L 570 285 L 555 310 L 525 310 L 510 285 Z" fill="#4d70ff" stroke="#365eff" stroke-miterlimit="10" pointer-events="all"/><path d="M 525 316 L 555 316 L 570 341 L 555 366 L 525 366 L 510 341 Z" fill="#365eff" stroke="#365eff" stroke-miterlimit="10" pointer-events="all"/><path d="M 125 316 L 155 316 L 170 341 L 155 366 L 125 366 L 110 341 Z" fill="#80a6ff" stroke="#365eff" stroke-miterlimit="10" pointer-events="all"/><path d="M 575 289 L 605 289 L 620 314 L 605 339 L 575 339 L 560 314 Z" fill="#4d70ff" stroke="#365eff" stroke-miterlimit="10" pointer-events="all"/><path d="M 25 260 L 55 260 L 70 285 L 55 310 L 25 310 L 10 285 Z" fill="#5482ff" stroke="#365eff" stroke-miterlimit="10" pointer-events="all"/><path d="M 125 372 L 155 372 L 170 397 L 155 422 L 125 422 L 110 397 Z" fill="#6e94ff" stroke="#365eff" stroke-miterlimit="10" pointer-events="all"/><path d="M 175 344 L 205 344 L 220 369 L 205 394 L 175 394 L 160 369 Z" fill="#6e94ff" stroke="#365eff" stroke-miterlimit="10" pointer-events="all"/><path d="M 175 400 L 205 400 L 220 425 L 205 450 L 175 450 L 160 425 Z" fill="#5482ff" stroke="#365eff" stroke-miterlimit="10" pointer-events="all"/><path d="M 225 372 L 255 372 L 270 397 L 255 422 L 225 422 L 210 397 Z" fill="#5482ff" stroke="#365eff" stroke-miterlimit="10" pointer-events="all"/><path d="M 275 344 L 305 344 L 320 369 L 305 394 L 275 394 L 260 369 Z" fill="#5482ff" stroke="#365eff" stroke-miterlimit="10" pointer-events="all"/><path d="M 275 400 L 305 400 L 320 425 L 305 450 L 275 450 L 260 425 Z" fill="#4d70ff" stroke="#365eff" stroke-miterlimit="10" pointer-events="all"/><path d="M 325 372 L 355 372 L 370 397 L 355 422 L 325 422 L 310 397 Z" fill="#4d70ff" stroke="#365eff" stroke-miterlimit="10" pointer-events="all"/><path d="M 375 344 L 405 344 L 420 369 L 405 394 L 375 394 L 360 369 Z" fill="#4d70ff" stroke="#365eff" stroke-miterlimit="10" pointer-events="all"/><path d="M 375 400 L 405 400 L 420 425 L 405 450 L 375 450 L 360 425 Z" fill="#365eff" stroke="#365eff" stroke-miterlimit="10" pointer-events="all"/><path d="M 425 372 L 455 372 L 470 397 L 455 422 L 425 422 L 410 397 Z" fill="#365eff" stroke="#365eff" stroke-miterlimit="10" pointer-events="all"/><path d="M 475 344 L 505 344 L 520 369 L 505 394 L 475 394 L 460 369 Z" fill="#365eff" stroke="#365eff" stroke-miterlimit="10" pointer-events="all"/><path d="M 475 400 L 505 400 L 520 425 L 505 450 L 475 450 L 460 425 Z" fill="#284feb" stroke="#365eff" stroke-miterlimit="10" pointer-events="all"/><path d="M 25 372 L 55 372 L 70 397 L 55 422 L 25 422 L 10 397 Z" fill="#80a6ff" stroke="#365eff" stroke-miterlimit="10" pointer-events="all"/><path d="M 75 344 L 105 344 L 120 369 L 105 394 L 75 394 L 60 369 Z" fill="#80a6ff" stroke="#365eff" stroke-miterlimit="10" pointer-events="all"/><path d="M 75 400 L 105 400 L 120 425 L 105 450 L 75 450 L 60 425 Z" fill="#80a6ff" stroke="#365eff" stroke-miterlimit="10" pointer-events="all"/><path d="M 525 372 L 555 372 L 570 397 L 555 422 L 525 422 L 510 397 Z" fill="#365dfa" stroke="#365eff" stroke-miterlimit="10" pointer-events="all"/><path d="M 575 345 L 605 345 L 620 370 L 605 395 L 575 395 L 560 370 Z" fill="#365dfa" stroke="#365eff" stroke-miterlimit="10" pointer-events="all"/><path d="M 575 401 L 605 401 L 620 426 L 605 451 L 575 451 L 560 426 Z" fill="#2642b3" stroke="#365eff" stroke-miterlimit="10" pointer-events="all"/><path d="M 175 456 L 205 456 L 220 481 L 205 506 L 175 506 L 160 481 Z" fill="#4d70ff" stroke="#365eff" stroke-miterlimit="10" pointer-events="all"/><path d="M 225 428 L 255 428 L 270 453 L 255 478 L 225 478 L 210 453 Z" fill="#4d70ff" stroke="#365eff" stroke-miterlimit="10" pointer-events="all"/><path d="M 225 484 L 255 484 L 270 509 L 255 534 L 225 534 L 210 509 Z" fill="#4d70ff" stroke="#365eff" stroke-miterlimit="10" pointer-events="all"/><path d="M 275 456 L 305 456 L 320 481 L 305 506 L 275 506 L 260 481 Z" fill="#365eff" stroke="#365eff" stroke-miterlimit="10" pointer-events="all"/><path d="M 325 428 L 355 428 L 370 453 L 355 478 L 325 478 L 310 453 Z" fill="#365eff" stroke="#365eff" stroke-miterlimit="10" pointer-events="all"/><path d="M 325 484 L 355 484 L 370 509 L 355 534 L 325 534 L 310 509 Z" fill="#365dfa" stroke="#365eff" stroke-miterlimit="10" pointer-events="all"/><path d="M 375 456 L 405 456 L 420 481 L 405 506 L 375 506 L 360 481 Z" fill="#365dfa" stroke="#365eff" stroke-miterlimit="10" pointer-events="all"/><path d="M 425 428 L 455 428 L 470 453 L 455 478 L 425 478 L 410 453 Z" fill="#365dfa" stroke="#365eff" stroke-miterlimit="10" pointer-events="all"/><path d="M 425 484 L 455 484 L 470 509 L 455 534 L 425 534 L 410 509 Z" fill="#2642b3" stroke="#365eff" stroke-miterlimit="10" pointer-events="all"/><path d="M 475 456 L 505 456 L 520 481 L 505 506 L 475 506 L 460 481 Z" fill="#2642b3" stroke="#365eff" stroke-miterlimit="10" pointer-events="all"/><path d="M 525 428 L 555 428 L 570 453 L 555 478 L 525 478 L 510 453 Z" fill="#2642b3" stroke="#365eff" stroke-miterlimit="10" pointer-events="all"/><path d="M 525 484 L 555 484 L 570 509 L 555 534 L 525 534 L 510 509 Z" fill="#365eff" stroke="#365eff" stroke-miterlimit="10" pointer-events="all"/><path d="M 75 456 L 105 456 L 120 481 L 105 506 L 75 506 L 60 481 Z" fill="#5482ff" stroke="#365eff" stroke-miterlimit="10" pointer-events="all"/><path d="M 125 428 L 155 428 L 170 453 L 155 478 L 125 478 L 110 453 Z" fill="#5482ff" stroke="#365eff" stroke-miterlimit="10" pointer-events="all"/><path d="M 125 484 L 155 484 L 170 509 L 155 534 L 125 534 L 110 509 Z" fill="#4d70ff" stroke="#365eff" stroke-miterlimit="10" pointer-events="all"/><path d="M 575 457 L 605 457 L 620 482 L 605 507 L 575 507 L 560 482 Z" fill="#365eff" stroke="#365eff" stroke-miterlimit="10" pointer-events="all"/><path d="M 25 428 L 55 428 L 70 453 L 55 478 L 25 478 L 10 453 Z" fill="#6e94ff" stroke="#365eff" stroke-miterlimit="10" pointer-events="all"/><path d="M 25 484 L 55 484 L 70 509 L 55 534 L 25 534 L 10 509 Z" fill="#5482ff" stroke="#365eff" stroke-miterlimit="10" pointer-events="all"/><path d="M 825 37 L 855 37 L 870 62 L 855 87 L 825 87 L 810 62 Z" fill="#5482ff" stroke="#365eff" stroke-miterlimit="10" pointer-events="all"/><path d="M 875 9 L 905 9 L 920 34 L 905 59 L 875 59 L 860 34 Z" fill="#5482ff" stroke="#365eff" stroke-miterlimit="10" pointer-events="all"/><path d="M 875 65 L 905 65 L 920 90 L 905 115 L 875 115 L 860 90 Z" fill="#4d70ff" stroke="#365eff" stroke-miterlimit="10" pointer-events="all"/><path d="M 925 37 L 955 37 L 970 62 L 955 87 L 925 87 L 910 62 Z" fill="#4d70ff" stroke="#365eff" stroke-miterlimit="10" pointer-events="all"/><path d="M 975 9 L 1005 9 L 1020 34 L 1005 59 L 975 59 L 960 34 Z" fill="#4d70ff" stroke="#365eff" stroke-miterlimit="10" pointer-events="all"/><path d="M 975 65 L 1005 65 L 1020 90 L 1005 115 L 975 115 L 960 90 Z" fill="#365eff" stroke="#365eff" stroke-miterlimit="10" pointer-events="all"/><path d="M 1025 37 L 1055 37 L 1070 62 L 1055 87 L 1025 87 L 1010 62 Z" fill="#365eff" stroke="#365eff" stroke-miterlimit="10" pointer-events="all"/><path d="M 1075 9 L 1105 9 L 1120 34 L 1105 59 L 1075 59 L 1060 34 Z" fill="#365eff" stroke="#365eff" stroke-miterlimit="10" pointer-events="all"/><path d="M 1075 65 L 1105 65 L 1120 90 L 1105 115 L 1075 115 L 1060 90 Z" fill="#284feb" stroke="#365eff" stroke-miterlimit="10" pointer-events="all"/><path d="M 1125 37 L 1155 37 L 1170 62 L 1155 87 L 1125 87 L 1110 62 Z" fill="#365dfa" stroke="#365eff" stroke-miterlimit="10" pointer-events="all"/><path d="M 1175 9 L 1205 9 L 1220 34 L 1205 59 L 1175 59 L 1160 34 Z" fill="#365dfa" stroke="#365eff" stroke-miterlimit="10" pointer-events="all"/><path d="M 1175 65 L 1205 65 L 1220 90 L 1205 115 L 1175 115 L 1160 90 Z" fill="#2642b3" stroke="#365eff" stroke-miterlimit="10" pointer-events="all"/><path d="M 725 37 L 755 37 L 770 62 L 755 87 L 725 87 L 710 62 Z" fill="#6e94ff" stroke="#365eff" stroke-miterlimit="10" pointer-events="all"/><path d="M 775 9 L 805 9 L 820 34 L 805 59 L 775 59 L 760 34 Z" fill="#6e94ff" stroke="#365eff" stroke-miterlimit="10" pointer-events="all"/><path d="M 775 65 L 805 65 L 820 90 L 805 115 L 775 115 L 760 90 Z" fill="#5482ff" stroke="#365eff" stroke-miterlimit="10" pointer-events="all"/><path d="M 625 37 L 655 37 L 670 62 L 655 87 L 625 87 L 610 62 Z" fill="#80a6ff" stroke="#365eff" stroke-miterlimit="10" pointer-events="all"/><path d="M 675 9 L 705 9 L 720 34 L 705 59 L 675 59 L 660 34 Z" fill="#80a6ff" stroke="#365eff" stroke-miterlimit="10" pointer-events="all"/><path d="M 675 65 L 705 65 L 720 90 L 705 115 L 675 115 L 660 90 Z" fill="#80a6ff" stroke="#365eff" stroke-miterlimit="10" pointer-events="all"/><path d="M 775 121 L 805 121 L 820 146 L 805 171 L 775 171 L 760 146 Z" fill="#4d70ff" stroke="#365eff" stroke-miterlimit="10" pointer-events="all"/><path d="M 825 93 L 855 93 L 870 118 L 855 143 L 825 143 L 810 118 Z" fill="#4d70ff" stroke="#365eff" stroke-miterlimit="10" pointer-events="all"/><path d="M 825 149 L 855 149 L 870 174 L 855 199 L 825 199 L 810 174 Z" fill="#4d70ff" stroke="#365eff" stroke-miterlimit="10" pointer-events="all"/><path d="M 875 121 L 905 121 L 920 146 L 905 171 L 875 171 L 860 146 Z" fill="#365eff" stroke="#365eff" stroke-miterlimit="10" pointer-events="all"/><path d="M 925 93 L 955 93 L 970 118 L 955 143 L 925 143 L 910 118 Z" fill="#4d70ff" stroke="#365eff" stroke-miterlimit="10" pointer-events="all"/><path d="M 925 149 L 955 149 L 970 174 L 955 199 L 925 199 L 910 174 Z" fill="#365dfa" stroke="#365eff" stroke-miterlimit="10" pointer-events="all"/><path d="M 975 121 L 1005 121 L 1020 146 L 1005 171 L 975 171 L 960 146 Z" fill="#365dfa" stroke="#365eff" stroke-miterlimit="10" pointer-events="all"/><path d="M 1025 93 L 1055 93 L 1070 118 L 1055 143 L 1025 143 L 1010 118 Z" fill="#365dfa" stroke="#365eff" stroke-miterlimit="10" pointer-events="all"/><path d="M 1025 149 L 1055 149 L 1070 174 L 1055 199 L 1025 199 L 1010 174 Z" fill="#2642b3" stroke="#365eff" stroke-miterlimit="10" pointer-events="all"/><path d="M 1075 121 L 1105 121 L 1120 146 L 1105 171 L 1075 171 L 1060 146 Z" fill="#2642b3" stroke="#365eff" stroke-miterlimit="10" pointer-events="all"/><path d="M 1125 93 L 1155 93 L 1170 118 L 1155 143 L 1125 143 L 1110 118 Z" fill="#2642b3" stroke="#365eff" stroke-miterlimit="10" pointer-events="all"/><path d="M 1125 149 L 1155 149 L 1170 174 L 1155 199 L 1125 199 L 1110 174 Z" fill="#365eff" stroke="#365eff" stroke-miterlimit="10" pointer-events="all"/><path d="M 675 121 L 705 121 L 720 146 L 705 171 L 675 171 L 660 146 Z" fill="#5482ff" stroke="#365eff" stroke-miterlimit="10" pointer-events="all"/><path d="M 725 93 L 755 93 L 770 118 L 755 143 L 725 143 L 710 118 Z" fill="#5482ff" stroke="#365eff" stroke-miterlimit="10" pointer-events="all"/><path d="M 725 149 L 755 149 L 770 174 L 755 199 L 725 199 L 710 174 Z" fill="#4d70ff" stroke="#365eff" stroke-miterlimit="10" pointer-events="all"/><path d="M 1175 121 L 1205 121 L 1220 146 L 1205 171 L 1175 171 L 1160 146 Z" fill="#365eff" stroke="#365eff" stroke-miterlimit="10" pointer-events="all"/><path d="M 625 93 L 655 93 L 670 118 L 655 143 L 625 143 L 610 118 Z" fill="#6e94ff" stroke="#365eff" stroke-miterlimit="10" pointer-events="all"/><path d="M 625 149 L 655 149 L 670 174 L 655 199 L 625 199 L 610 174 Z" fill="#5482ff" stroke="#365eff" stroke-miterlimit="10" pointer-events="all"/><path d="M 825 205 L 855 205 L 870 230 L 855 255 L 825 255 L 810 230 Z" fill="#365dfa" stroke="#365eff" stroke-miterlimit="10" pointer-events="all"/><path d="M 875 177 L 905 177 L 920 202 L 905 227 L 875 227 L 860 202 Z" fill="#365dfa" stroke="#365eff" stroke-miterlimit="10" pointer-events="all"/><path d="M 875 233 L 905 233 L 920 258 L 905 283 L 875 283 L 860 258 Z" fill="#2642b3" stroke="#365eff" stroke-miterlimit="10" pointer-events="all"/><path d="M 925 205 L 955 205 L 970 230 L 955 255 L 925 255 L 910 230 Z" fill="#2642b3" stroke="#365eff" stroke-miterlimit="10" pointer-events="all"/><path d="M 975 177 L 1005 177 L 1020 202 L 1005 227 L 975 227 L 960 202 Z" fill="#2642b3" stroke="#365eff" stroke-miterlimit="10" pointer-events="all"/><path d="M 975 233 L 1005 233 L 1020 258 L 1005 283 L 975 283 L 960 258 Z" fill="#365eff" stroke="#365eff" stroke-miterlimit="10" pointer-events="all"/><path d="M 1025 205 L 1055 205 L 1070 230 L 1055 255 L 1025 255 L 1010 230 Z" fill="#365eff" stroke="#365eff" stroke-miterlimit="10" pointer-events="all"/><path d="M 1075 177 L 1105 177 L 1120 202 L 1105 227 L 1075 227 L 1060 202 Z" fill="#365eff" stroke="#365eff" stroke-miterlimit="10" pointer-events="all"/><path d="M 1075 233 L 1105 233 L 1120 258 L 1105 283 L 1075 283 L 1060 258 Z" fill="#365eff" stroke="#365eff" stroke-miterlimit="10" pointer-events="all"/><path d="M 1125 205 L 1155 205 L 1170 230 L 1155 255 L 1125 255 L 1110 230 Z" fill="#365eff" stroke="#365eff" stroke-miterlimit="10" pointer-events="all"/><path d="M 1175 177 L 1205 177 L 1220 202 L 1205 227 L 1175 227 L 1160 202 Z" fill="#365eff" stroke="#365eff" stroke-miterlimit="10" pointer-events="all"/><path d="M 1175 233 L 1205 233 L 1220 258 L 1205 283 L 1175 283 L 1160 258 Z" fill="#365eff" stroke="#365eff" stroke-miterlimit="10" pointer-events="all"/><path d="M 725 205 L 755 205 L 770 230 L 755 255 L 725 255 L 710 230 Z" fill="#365eff" stroke="#365eff" stroke-miterlimit="10" pointer-events="all"/><path d="M 775 177 L 805 177 L 820 202 L 805 227 L 775 227 L 760 202 Z" fill="#365eff" stroke="#365eff" stroke-miterlimit="10" pointer-events="all"/><path d="M 775 233 L 805 233 L 820 258 L 805 283 L 775 283 L 760 258 Z" fill="#284feb" stroke="#365eff" stroke-miterlimit="10" pointer-events="all"/><path d="M 625 205 L 655 205 L 670 230 L 655 255 L 625 255 L 610 230 Z" fill="#4d70ff" stroke="#365eff" stroke-miterlimit="10" pointer-events="all"/><path d="M 675 177 L 705 177 L 720 202 L 705 227 L 675 227 L 660 202 Z" fill="#4d70ff" stroke="#365eff" stroke-miterlimit="10" pointer-events="all"/><path d="M 675 233 L 705 233 L 720 258 L 705 283 L 675 283 L 660 258 Z" fill="#365eff" stroke="#365eff" stroke-miterlimit="10" pointer-events="all"/><path d="M 775 288 L 805 288 L 820 313 L 805 338 L 775 338 L 760 313 Z" fill="#2642b3" stroke="#365eff" stroke-miterlimit="10" pointer-events="all"/><path d="M 825 260 L 855 260 L 870 285 L 855 310 L 825 310 L 810 285 Z" fill="#2642b3" stroke="#365eff" stroke-miterlimit="10" pointer-events="all"/><path d="M 825 316 L 855 316 L 870 341 L 855 366 L 825 366 L 810 341 Z" fill="#365eff" stroke="#365eff" stroke-miterlimit="10" pointer-events="all"/><path d="M 875 288 L 905 288 L 920 313 L 905 338 L 875 338 L 860 313 Z" fill="#365eff" stroke="#365eff" stroke-miterlimit="10" pointer-events="all"/><path d="M 925 260 L 955 260 L 970 285 L 955 310 L 925 310 L 910 285 Z" fill="#365eff" stroke="#365eff" stroke-miterlimit="10" pointer-events="all"/><path d="M 925 316 L 955 316 L 970 341 L 955 366 L 925 366 L 910 341 Z" fill="#365eff" stroke="#365eff" stroke-miterlimit="10" pointer-events="all"/><path d="M 975 288 L 1005 288 L 1020 313 L 1005 338 L 975 338 L 960 313 Z" fill="#365eff" stroke="#365eff" stroke-miterlimit="10" pointer-events="all"/><path d="M 1025 260 L 1055 260 L 1070 285 L 1055 310 L 1025 310 L 1010 285 Z" fill="#365eff" stroke="#365eff" stroke-miterlimit="10" pointer-events="all"/><path d="M 1025 316 L 1055 316 L 1070 341 L 1055 366 L 1025 366 L 1010 341 Z" fill="#365eff" stroke="#365eff" stroke-miterlimit="10" pointer-events="all"/><path d="M 1075 288 L 1105 288 L 1120 313 L 1105 338 L 1075 338 L 1060 313 Z" fill="#365eff" stroke="#365eff" stroke-miterlimit="10" pointer-events="all"/><path d="M 1125 260 L 1155 260 L 1170 285 L 1155 310 L 1125 310 L 1110 285 Z" fill="#365eff" stroke="#365eff" stroke-miterlimit="10" pointer-events="all"/><path d="M 1125 316 L 1155 316 L 1170 341 L 1155 366 L 1125 366 L 1110 341 Z" fill="#365eff" stroke="#365eff" stroke-miterlimit="10" pointer-events="all"/><path d="M 675 288 L 705 288 L 720 313 L 705 338 L 675 338 L 660 313 Z" fill="#365dfa" stroke="#365eff" stroke-miterlimit="10" pointer-events="all"/><path d="M 725 260 L 755 260 L 770 285 L 755 310 L 725 310 L 710 285 Z" fill="#365dfa" stroke="#365eff" stroke-miterlimit="10" pointer-events="all"/><path d="M 725 316 L 755 316 L 770 341 L 755 366 L 725 366 L 710 341 Z" fill="#2642b3" stroke="#365eff" stroke-miterlimit="10" pointer-events="all"/><path d="M 1175 289 L 1205 289 L 1220 314 L 1205 339 L 1175 339 L 1160 314 Z" fill="#365eff" stroke="#365eff" stroke-miterlimit="10" pointer-events="all"/><path d="M 625 260 L 655 260 L 670 285 L 655 310 L 625 310 L 610 285 Z" fill="#365eff" stroke="#365eff" stroke-miterlimit="10" pointer-events="all"/><path d="M 625 316 L 655 316 L 670 341 L 655 366 L 625 366 L 610 341 Z" fill="#365dfa" stroke="#365eff" stroke-miterlimit="10" pointer-events="all"/><path d="M 725 372 L 755 372 L 770 397 L 755 422 L 725 422 L 710 397 Z" fill="#365eff" stroke="#365eff" stroke-miterlimit="10" pointer-events="all"/><path d="M 775 344 L 805 344 L 820 369 L 805 394 L 775 394 L 760 369 Z" fill="#365eff" stroke="#365eff" stroke-miterlimit="10" pointer-events="all"/><path d="M 775 400 L 805 400 L 820 425 L 805 450 L 775 450 L 760 425 Z" fill="#365eff" stroke="#365eff" stroke-miterlimit="10" pointer-events="all"/><path d="M 825 372 L 855 372 L 870 397 L 855 422 L 825 422 L 810 397 Z" fill="#365eff" stroke="#365eff" stroke-miterlimit="10" pointer-events="all"/><path d="M 875 344 L 905 344 L 920 369 L 905 394 L 875 394 L 860 369 Z" fill="#365eff" stroke="#365eff" stroke-miterlimit="10" pointer-events="all"/><path d="M 875 400 L 905 400 L 920 425 L 905 450 L 875 450 L 860 425 Z" fill="#365eff" stroke="#365eff" stroke-miterlimit="10" pointer-events="all"/><path d="M 925 372 L 955 372 L 970 397 L 955 422 L 925 422 L 910 397 Z" fill="#365eff" stroke="#365eff" stroke-miterlimit="10" pointer-events="all"/><path d="M 975 344 L 1005 344 L 1020 369 L 1005 394 L 975 394 L 960 369 Z" fill="#365eff" stroke="#365eff" stroke-miterlimit="10" pointer-events="all"/><path d="M 975 400 L 1005 400 L 1020 425 L 1005 450 L 975 450 L 960 425 Z" fill="#365eff" stroke="#365eff" stroke-miterlimit="10" pointer-events="all"/><path d="M 1025 372 L 1055 372 L 1070 397 L 1055 422 L 1025 422 L 1010 397 Z" fill="#365eff" stroke="#365eff" stroke-miterlimit="10" pointer-events="all"/><path d="M 1075 344 L 1105 344 L 1120 369 L 1105 394 L 1075 394 L 1060 369 Z" fill="#365eff" stroke="#365eff" stroke-miterlimit="10" pointer-events="all"/><path d="M 1075 400 L 1105 400 L 1120 425 L 1105 450 L 1075 450 L 1060 425 Z" fill="#365eff" stroke="#365eff" stroke-miterlimit="10" pointer-events="all"/><path d="M 625 372 L 655 372 L 670 397 L 655 422 L 625 422 L 610 397 Z" fill="#2642b3" stroke="#365eff" stroke-miterlimit="10" pointer-events="all"/><path d="M 675 344 L 705 344 L 720 369 L 705 394 L 675 394 L 660 369 Z" fill="#2642b3" stroke="#365eff" stroke-miterlimit="10" pointer-events="all"/><path d="M 675 400 L 705 400 L 720 425 L 705 450 L 675 450 L 660 425 Z" fill="#365eff" stroke="#365eff" stroke-miterlimit="10" pointer-events="all"/><path d="M 1125 372 L 1155 372 L 1170 397 L 1155 422 L 1125 422 L 1110 397 Z" fill="#365eff" stroke="#365eff" stroke-miterlimit="10" pointer-events="all"/><path d="M 1175 345 L 1205 345 L 1220 370 L 1205 395 L 1175 395 L 1160 370 Z" fill="#365eff" stroke="#365eff" stroke-miterlimit="10" pointer-events="all"/><path d="M 1175 401 L 1205 401 L 1220 426 L 1205 451 L 1175 451 L 1160 426 Z" fill="#365eff" stroke="#365eff" stroke-miterlimit="10" pointer-events="all"/><path d="M 775 456 L 805 456 L 820 481 L 805 506 L 775 506 L 760 481 Z" fill="#365eff" stroke="#365eff" stroke-miterlimit="10" pointer-events="all"/><path d="M 825 428 L 855 428 L 870 453 L 855 478 L 825 478 L 810 453 Z" fill="#365eff" stroke="#365eff" stroke-miterlimit="10" pointer-events="all"/><path d="M 825 484 L 855 484 L 870 509 L 855 534 L 825 534 L 810 509 Z" fill="#365eff" stroke="#365eff" stroke-miterlimit="10" pointer-events="all"/><path d="M 875 456 L 905 456 L 920 481 L 905 506 L 875 506 L 860 481 Z" fill="#365eff" stroke="#365eff" stroke-miterlimit="10" pointer-events="all"/><path d="M 925 428 L 955 428 L 970 453 L 955 478 L 925 478 L 910 453 Z" fill="#365eff" stroke="#365eff" stroke-miterlimit="10" pointer-events="all"/><path d="M 925 484 L 955 484 L 970 509 L 955 534 L 925 534 L 910 509 Z" fill="#365eff" stroke="#365eff" stroke-miterlimit="10" pointer-events="all"/><path d="M 975 456 L 1005 456 L 1020 481 L 1005 506 L 975 506 L 960 481 Z" fill="#365eff" stroke="#365eff" stroke-miterlimit="10" pointer-events="all"/><path d="M 1025 428 L 1055 428 L 1070 453 L 1055 478 L 1025 478 L 1010 453 Z" fill="#365eff" stroke="#365eff" stroke-miterlimit="10" pointer-events="all"/><path d="M 1025 484 L 1055 484 L 1070 509 L 1055 534 L 1025 534 L 1010 509 Z" fill="#365eff" stroke="#365eff" stroke-miterlimit="10" pointer-events="all"/><path d="M 1075 456 L 1105 456 L 1120 481 L 1105 506 L 1075 506 L 1060 481 Z" fill="#365eff" stroke="#365eff" stroke-miterlimit="10" pointer-events="all"/><path d="M 1125 428 L 1155 428 L 1170 453 L 1155 478 L 1125 478 L 1110 453 Z" fill="#365eff" stroke="#365eff" stroke-miterlimit="10" pointer-events="all"/><path d="M 1125 484 L 1155 484 L 1170 509 L 1155 534 L 1125 534 L 1110 509 Z" fill="#365eff" stroke="#365eff" stroke-miterlimit="10" pointer-events="all"/><path d="M 675 456 L 705 456 L 720 481 L 705 506 L 675 506 L 660 481 Z" fill="#365eff" stroke="#365eff" stroke-miterlimit="10" pointer-events="all"/><path d="M 725 428 L 755 428 L 770 453 L 755 478 L 725 478 L 710 453 Z" fill="#365eff" stroke="#365eff" stroke-miterlimit="10" pointer-events="all"/><path d="M 725 484 L 755 484 L 770 509 L 755 534 L 725 534 L 710 509 Z" fill="#365eff" stroke="#365eff" stroke-miterlimit="10" pointer-events="all"/><path d="M 1175 457 L 1205 457 L 1220 482 L 1205 507 L 1175 507 L 1160 482 Z" fill="#365eff" stroke="#365eff" stroke-miterlimit="10" pointer-events="all"/><path d="M 625 428 L 655 428 L 670 453 L 655 478 L 625 478 L 610 453 Z" fill="#365eff" stroke="#365eff" stroke-miterlimit="10" pointer-events="all"/><path d="M 625 484 L 655 484 L 670 509 L 655 534 L 625 534 L 610 509 Z" fill="#365eff" stroke="#365eff" stroke-miterlimit="10" pointer-events="all"/><path d="M 225 540 L 255 540 L 270 565 L 255 590 L 225 590 L 210 565 Z" fill="#365dfa" stroke="#365eff" stroke-miterlimit="10" pointer-events="all"/><path d="M 275 512 L 305 512 L 320 537 L 305 562 L 275 562 L 260 537 Z" fill="#365dfa" stroke="#365eff" stroke-miterlimit="10" pointer-events="all"/><path d="M 275 568 L 305 568 L 320 593 L 305 618 L 275 618 L 260 593 Z" fill="#2642b3" stroke="#365eff" stroke-miterlimit="10" pointer-events="all"/><path d="M 325 540 L 355 540 L 370 565 L 355 590 L 325 590 L 310 565 Z" fill="#2642b3" stroke="#365eff" stroke-miterlimit="10" pointer-events="all"/><path d="M 375 512 L 405 512 L 420 537 L 405 562 L 375 562 L 360 537 Z" fill="#2642b3" stroke="#365eff" stroke-miterlimit="10" pointer-events="all"/><path d="M 375 568 L 405 568 L 420 593 L 405 618 L 375 618 L 360 593 Z" fill="#365eff" stroke="#365eff" stroke-miterlimit="10" pointer-events="all"/><path d="M 425 540 L 455 540 L 470 565 L 455 590 L 425 590 L 410 565 Z" fill="#365eff" stroke="#365eff" stroke-miterlimit="10" pointer-events="all"/><path d="M 475 512 L 505 512 L 520 537 L 505 562 L 475 562 L 460 537 Z" fill="#365eff" stroke="#365eff" stroke-miterlimit="10" pointer-events="all"/><path d="M 475 568 L 505 568 L 520 593 L 505 618 L 475 618 L 460 593 Z" fill="#365eff" stroke="#365eff" stroke-miterlimit="10" pointer-events="all"/><path d="M 525 540 L 555 540 L 570 565 L 555 590 L 525 590 L 510 565 Z" fill="#365eff" stroke="#365eff" stroke-miterlimit="10" pointer-events="all"/><path d="M 575 512 L 605 512 L 620 537 L 605 562 L 575 562 L 560 537 Z" fill="#365eff" stroke="#365eff" stroke-miterlimit="10" pointer-events="all"/><path d="M 575 568 L 605 568 L 620 593 L 605 618 L 575 618 L 560 593 Z" fill="#365eff" stroke="#365eff" stroke-miterlimit="10" pointer-events="all"/><path d="M 125 540 L 155 540 L 170 565 L 155 590 L 125 590 L 110 565 Z" fill="#4d70ff" stroke="#365eff" stroke-miterlimit="10" pointer-events="all"/><path d="M 175 512 L 205 512 L 220 537 L 205 562 L 175 562 L 160 537 Z" fill="#365eff" stroke="#365eff" stroke-miterlimit="10" pointer-events="all"/><path d="M 175 568 L 205 568 L 220 593 L 205 618 L 175 618 L 160 593 Z" fill="#365dfa" stroke="#365eff" stroke-miterlimit="10" pointer-events="all"/><path d="M 25 540 L 55 540 L 70 565 L 55 590 L 25 590 L 10 565 Z" fill="#4d70ff" stroke="#365eff" stroke-miterlimit="10" pointer-events="all"/><path d="M 75 512 L 105 512 L 120 537 L 105 562 L 75 562 L 60 537 Z" fill="#4d70ff" stroke="#365eff" stroke-miterlimit="10" pointer-events="all"/><path d="M 75 568 L 105 568 L 120 593 L 105 618 L 75 618 L 60 593 Z" fill="#365eff" stroke="#365eff" stroke-miterlimit="10" pointer-events="all"/><path d="M 175 624 L 205 624 L 220 649 L 205 674 L 175 674 L 160 649 Z" fill="#2642b3" stroke="#365eff" stroke-miterlimit="10" pointer-events="all"/><path d="M 225 596 L 255 596 L 270 621 L 255 646 L 225 646 L 210 621 Z" fill="#2642b3" stroke="#365eff" stroke-miterlimit="10" pointer-events="all"/><path d="M 225 652 L 255 652 L 270 677 L 255 702 L 225 702 L 210 677 Z" fill="#365eff" stroke="#365eff" stroke-miterlimit="10" pointer-events="all"/><path d="M 275 624 L 305 624 L 320 649 L 305 674 L 275 674 L 260 649 Z" fill="#365eff" stroke="#365eff" stroke-miterlimit="10" pointer-events="all"/><path d="M 325 596 L 355 596 L 370 621 L 355 646 L 325 646 L 310 621 Z" fill="#365eff" stroke="#365eff" stroke-miterlimit="10" pointer-events="all"/><path d="M 325 652 L 355 652 L 370 677 L 355 702 L 325 702 L 310 677 Z" fill="#365eff" stroke="#365eff" stroke-miterlimit="10" pointer-events="all"/><path d="M 375 624 L 405 624 L 420 649 L 405 674 L 375 674 L 360 649 Z" fill="#365eff" stroke="#365eff" stroke-miterlimit="10" pointer-events="all"/><path d="M 425 596 L 455 596 L 470 621 L 455 646 L 425 646 L 410 621 Z" fill="#365eff" stroke="#365eff" stroke-miterlimit="10" pointer-events="all"/><path d="M 425 652 L 455 652 L 470 677 L 455 702 L 425 702 L 410 677 Z" fill="#365eff" stroke="#365eff" stroke-miterlimit="10" pointer-events="all"/><path d="M 475 624 L 505 624 L 520 649 L 505 674 L 475 674 L 460 649 Z" fill="#365eff" stroke="#365eff" stroke-miterlimit="10" pointer-events="all"/><path d="M 525 596 L 555 596 L 570 621 L 555 646 L 525 646 L 510 621 Z" fill="#365eff" stroke="#365eff" stroke-miterlimit="10" pointer-events="all"/><path d="M 525 652 L 555 652 L 570 677 L 555 702 L 525 702 L 510 677 Z" fill="#365eff" stroke="#365eff" stroke-miterlimit="10" pointer-events="all"/><path d="M 75 624 L 105 624 L 120 649 L 105 674 L 75 674 L 60 649 Z" fill="#365dfa" stroke="#365eff" stroke-miterlimit="10" pointer-events="all"/><path d="M 125 596 L 155 596 L 170 621 L 155 646 L 125 646 L 110 621 Z" fill="#284feb" stroke="#365eff" stroke-miterlimit="10" pointer-events="all"/><path d="M 125 652 L 155 652 L 170 677 L 155 702 L 125 702 L 110 677 Z" fill="#2642b3" stroke="#365eff" stroke-miterlimit="10" pointer-events="all"/><path d="M 575 624 L 605 624 L 620 649 L 605 674 L 575 674 L 560 649 Z" fill="#365eff" stroke="#365eff" stroke-miterlimit="10" pointer-events="all"/><path d="M 25 596 L 55 596 L 70 621 L 55 646 L 25 646 L 10 621 Z" fill="#365eff" stroke="#365eff" stroke-miterlimit="10" pointer-events="all"/><path d="M 25 652 L 55 652 L 70 677 L 55 702 L 25 702 L 10 677 Z" fill="#365dfa" stroke="#365eff" stroke-miterlimit="10" pointer-events="all"/><path d="M 225 708 L 255 708 L 270 733 L 255 758 L 225 758 L 210 733 Z" fill="#365eff" stroke="#365eff" stroke-miterlimit="10" pointer-events="all"/><path d="M 275 680 L 305 680 L 320 705 L 305 730 L 275 730 L 260 705 Z" fill="#365eff" stroke="#365eff" stroke-miterlimit="10" pointer-events="all"/><path d="M 275 736 L 305 736 L 320 761 L 305 786 L 275 786 L 260 761 Z" fill="#365eff" stroke="#365eff" stroke-miterlimit="10" pointer-events="all"/><path d="M 325 708 L 355 708 L 370 733 L 355 758 L 325 758 L 310 733 Z" fill="#365eff" stroke="#365eff" stroke-miterlimit="10" pointer-events="all"/><path d="M 375 680 L 405 680 L 420 705 L 405 730 L 375 730 L 360 705 Z" fill="#365eff" stroke="#365eff" stroke-miterlimit="10" pointer-events="all"/><path d="M 375 736 L 405 736 L 420 761 L 405 786 L 375 786 L 360 761 Z" fill="#365eff" stroke="#365eff" stroke-miterlimit="10" pointer-events="all"/><path d="M 425 708 L 455 708 L 470 733 L 455 758 L 425 758 L 410 733 Z" fill="#365eff" stroke="#365eff" stroke-miterlimit="10" pointer-events="all"/><path d="M 475 680 L 505 680 L 520 705 L 505 730 L 475 730 L 460 705 Z" fill="#365eff" stroke="#365eff" stroke-miterlimit="10" pointer-events="all"/><path d="M 475 736 L 505 736 L 520 761 L 505 786 L 475 786 L 460 761 Z" fill="#365eff" stroke="#365eff" stroke-miterlimit="10" pointer-events="all"/><path d="M 525 708 L 555 708 L 570 733 L 555 758 L 525 758 L 510 733 Z" fill="#365eff" stroke="#365eff" stroke-miterlimit="10" pointer-events="all"/><path d="M 575 680 L 605 680 L 620 705 L 605 730 L 575 730 L 560 705 Z" fill="#365eff" stroke="#365eff" stroke-miterlimit="10" pointer-events="all"/><path d="M 575 736 L 605 736 L 620 761 L 605 786 L 575 786 L 560 761 Z" fill="#365eff" stroke="#365eff" stroke-miterlimit="10" pointer-events="all"/><path d="M 125 708 L 155 708 L 170 733 L 155 758 L 125 758 L 110 733 Z" fill="#365eff" stroke="#365eff" stroke-miterlimit="10" pointer-events="all"/><path d="M 175 680 L 205 680 L 220 705 L 205 730 L 175 730 L 160 705 Z" fill="#365eff" stroke="#365eff" stroke-miterlimit="10" pointer-events="all"/><path d="M 175 736 L 205 736 L 220 761 L 205 786 L 175 786 L 160 761 Z" fill="#365eff" stroke="#365eff" stroke-miterlimit="10" pointer-events="all"/><path d="M 25 708 L 55 708 L 70 733 L 55 758 L 25 758 L 10 733 Z" fill="#2642b3" stroke="#365eff" stroke-miterlimit="10" pointer-events="all"/><path d="M 75 680 L 105 680 L 120 705 L 105 730 L 75 730 L 60 705 Z" fill="#2642b3" stroke="#365eff" stroke-miterlimit="10" pointer-events="all"/><path d="M 75 736 L 105 736 L 120 761 L 105 786 L 75 786 L 60 761 Z" fill="#365eff" stroke="#365eff" stroke-miterlimit="10" pointer-events="all"/><path d="M 225 763 L 255 763 L 270 788 L 255 813 L 225 813 L 210 788 Z" fill="#365eff" stroke="#365eff" stroke-miterlimit="10" pointer-events="all"/><path d="M 325 763 L 355 763 L 370 788 L 355 813 L 325 813 L 310 788 Z" fill="#365eff" stroke="#365eff" stroke-miterlimit="10" pointer-events="all"/><path d="M 425 763 L 455 763 L 470 788 L 455 813 L 425 813 L 410 788 Z" fill="#365eff" stroke="#365eff" stroke-miterlimit="10" pointer-events="all"/><path d="M 525 763 L 555 763 L 570 788 L 555 813 L 525 813 L 510 788 Z" fill="#365eff" stroke="#365eff" stroke-miterlimit="10" pointer-events="all"/><path d="M 125 763 L 155 763 L 170 788 L 155 813 L 125 813 L 110 788 Z" fill="#365eff" stroke="#365eff" stroke-miterlimit="10" pointer-events="all"/><path d="M 25 763 L 55 763 L 70 788 L 55 813 L 25 813 L 10 788 Z" fill="#365eff" stroke="#365eff" stroke-miterlimit="10" pointer-events="all"/><path d="M 825 540 L 855 540 L 870 565 L 855 590 L 825 590 L 810 565 Z" fill="#365eff" stroke="#365eff" stroke-miterlimit="10" pointer-events="all"/><path d="M 875 512 L 905 512 L 920 537 L 905 562 L 875 562 L 860 537 Z" fill="#365eff" stroke="#365eff" stroke-miterlimit="10" pointer-events="all"/><path d="M 875 568 L 905 568 L 920 593 L 905 618 L 875 618 L 860 593 Z" fill="#365eff" stroke="#365eff" stroke-miterlimit="10" pointer-events="all"/><path d="M 925 540 L 955 540 L 970 565 L 955 590 L 925 590 L 910 565 Z" fill="#365eff" stroke="#365eff" stroke-miterlimit="10" pointer-events="all"/><path d="M 975 512 L 1005 512 L 1020 537 L 1005 562 L 975 562 L 960 537 Z" fill="#365eff" stroke="#365eff" stroke-miterlimit="10" pointer-events="all"/><path d="M 975 568 L 1005 568 L 1020 593 L 1005 618 L 975 618 L 960 593 Z" fill="#365eff" stroke="#365eff" stroke-miterlimit="10" pointer-events="all"/><path d="M 1025 540 L 1055 540 L 1070 565 L 1055 590 L 1025 590 L 1010 565 Z" fill="#365eff" stroke="#365eff" stroke-miterlimit="10" pointer-events="all"/><path d="M 1075 512 L 1105 512 L 1120 537 L 1105 562 L 1075 562 L 1060 537 Z" fill="#365eff" stroke="#365eff" stroke-miterlimit="10" pointer-events="all"/><path d="M 1075 568 L 1105 568 L 1120 593 L 1105 618 L 1075 618 L 1060 593 Z" fill="#365eff" stroke="#365eff" stroke-miterlimit="10" pointer-events="all"/><path d="M 1125 540 L 1155 540 L 1170 565 L 1155 590 L 1125 590 L 1110 565 Z" fill="#365eff" stroke="#365eff" stroke-miterlimit="10" pointer-events="all"/><path d="M 1175 512 L 1205 512 L 1220 537 L 1205 562 L 1175 562 L 1160 537 Z" fill="#365eff" stroke="#365eff" stroke-miterlimit="10" pointer-events="all"/><path d="M 1175 568 L 1205 568 L 1220 593 L 1205 618 L 1175 618 L 1160 593 Z" fill="#365eff" stroke="#365eff" stroke-miterlimit="10" pointer-events="all"/><path d="M 725 540 L 755 540 L 770 565 L 755 590 L 725 590 L 710 565 Z" fill="#365eff" stroke="#365eff" stroke-miterlimit="10" pointer-events="all"/><path d="M 775 512 L 805 512 L 820 537 L 805 562 L 775 562 L 760 537 Z" fill="#365eff" stroke="#365eff" stroke-miterlimit="10" pointer-events="all"/><path d="M 775 568 L 805 568 L 820 593 L 805 618 L 775 618 L 760 593 Z" fill="#365eff" stroke="#365eff" stroke-miterlimit="10" pointer-events="all"/><path d="M 625 540 L 655 540 L 670 565 L 655 590 L 625 590 L 610 565 Z" fill="#365eff" stroke="#365eff" stroke-miterlimit="10" pointer-events="all"/><path d="M 675 512 L 705 512 L 720 537 L 705 562 L 675 562 L 660 537 Z" fill="#365eff" stroke="#365eff" stroke-miterlimit="10" pointer-events="all"/><path d="M 675 568 L 705 568 L 720 593 L 705 618 L 675 618 L 660 593 Z" fill="#365eff" stroke="#365eff" stroke-miterlimit="10" pointer-events="all"/><path d="M 775 624 L 805 624 L 820 649 L 805 674 L 775 674 L 760 649 Z" fill="#365eff" stroke="#365eff" stroke-miterlimit="10" pointer-events="all"/><path d="M 825 596 L 855 596 L 870 621 L 855 646 L 825 646 L 810 621 Z" fill="#365eff" stroke="#365eff" stroke-miterlimit="10" pointer-events="all"/><path d="M 825 652 L 855 652 L 870 677 L 855 702 L 825 702 L 810 677 Z" fill="#365eff" stroke="#365eff" stroke-miterlimit="10" pointer-events="all"/><path d="M 875 624 L 905 624 L 920 649 L 905 674 L 875 674 L 860 649 Z" fill="#365eff" stroke="#365eff" stroke-miterlimit="10" pointer-events="all"/><path d="M 925 596 L 955 596 L 970 621 L 955 646 L 925 646 L 910 621 Z" fill="#365eff" stroke="#365eff" stroke-miterlimit="10" pointer-events="all"/><path d="M 925 652 L 955 652 L 970 677 L 955 702 L 925 702 L 910 677 Z" fill="#365eff" stroke="#365eff" stroke-miterlimit="10" pointer-events="all"/><path d="M 975 624 L 1005 624 L 1020 649 L 1005 674 L 975 674 L 960 649 Z" fill="#365eff" stroke="#365eff" stroke-miterlimit="10" pointer-events="all"/><path d="M 1025 596 L 1055 596 L 1070 621 L 1055 646 L 1025 646 L 1010 621 Z" fill="#365eff" stroke="#365eff" stroke-miterlimit="10" pointer-events="all"/><path d="M 1025 652 L 1055 652 L 1070 677 L 1055 702 L 1025 702 L 1010 677 Z" fill="#365eff" stroke="#365eff" stroke-miterlimit="10" pointer-events="all"/><path d="M 1075 624 L 1105 624 L 1120 649 L 1105 674 L 1075 674 L 1060 649 Z" fill="#365eff" stroke="#365eff" stroke-miterlimit="10" pointer-events="all"/><path d="M 1125 596 L 1155 596 L 1170 621 L 1155 646 L 1125 646 L 1110 621 Z" fill="#365eff" stroke="#365eff" stroke-miterlimit="10" pointer-events="all"/><path d="M 1125 652 L 1155 652 L 1170 677 L 1155 702 L 1125 702 L 1110 677 Z" fill="#365eff" stroke="#365eff" stroke-miterlimit="10" pointer-events="all"/><path d="M 675 624 L 705 624 L 720 649 L 705 674 L 675 674 L 660 649 Z" fill="#365eff" stroke="#365eff" stroke-miterlimit="10" pointer-events="all"/><path d="M 725 596 L 755 596 L 770 621 L 755 646 L 725 646 L 710 621 Z" fill="#365eff" stroke="#365eff" stroke-miterlimit="10" pointer-events="all"/><path d="M 725 652 L 755 652 L 770 677 L 755 702 L 725 702 L 710 677 Z" fill="#365eff" stroke="#365eff" stroke-miterlimit="10" pointer-events="all"/><path d="M 1175 624 L 1205 624 L 1220 649 L 1205 674 L 1175 674 L 1160 649 Z" fill="#365eff" stroke="#365eff" stroke-miterlimit="10" pointer-events="all"/><path d="M 625 596 L 655 596 L 670 621 L 655 646 L 625 646 L 610 621 Z" fill="#365eff" stroke="#365eff" stroke-miterlimit="10" pointer-events="all"/><path d="M 625 652 L 655 652 L 670 677 L 655 702 L 625 702 L 610 677 Z" fill="#365eff" stroke="#365eff" stroke-miterlimit="10" pointer-events="all"/><path d="M 825 708 L 855 708 L 870 733 L 855 758 L 825 758 L 810 733 Z" fill="#365eff" stroke="#365eff" stroke-miterlimit="10" pointer-events="all"/><path d="M 875 680 L 905 680 L 920 705 L 905 730 L 875 730 L 860 705 Z" fill="#365eff" stroke="#365eff" stroke-miterlimit="10" pointer-events="all"/><path d="M 875 736 L 905 736 L 920 761 L 905 786 L 875 786 L 860 761 Z" fill="#365eff" stroke="#365eff" stroke-miterlimit="10" pointer-events="all"/><path d="M 925 708 L 955 708 L 970 733 L 955 758 L 925 758 L 910 733 Z" fill="#365eff" stroke="#365eff" stroke-miterlimit="10" pointer-events="all"/><path d="M 975 680 L 1005 680 L 1020 705 L 1005 730 L 975 730 L 960 705 Z" fill="#365eff" stroke="#365eff" stroke-miterlimit="10" pointer-events="all"/><path d="M 975 736 L 1005 736 L 1020 761 L 1005 786 L 975 786 L 960 761 Z" fill="#365eff" stroke="#365eff" stroke-miterlimit="10" pointer-events="all"/><path d="M 1025 708 L 1055 708 L 1070 733 L 1055 758 L 1025 758 L 1010 733 Z" fill="#365eff" stroke="#365eff" stroke-miterlimit="10" pointer-events="all"/><path d="M 1075 680 L 1105 680 L 1120 705 L 1105 730 L 1075 730 L 1060 705 Z" fill="#365eff" stroke="#365eff" stroke-miterlimit="10" pointer-events="all"/><path d="M 1075 736 L 1105 736 L 1120 761 L 1105 786 L 1075 786 L 1060 761 Z" fill="#365eff" stroke="#365eff" stroke-miterlimit="10" pointer-events="all"/><path d="M 1125 708 L 1155 708 L 1170 733 L 1155 758 L 1125 758 L 1110 733 Z" fill="#365eff" stroke="#365eff" stroke-miterlimit="10" pointer-events="all"/><path d="M 1175 680 L 1205 680 L 1220 705 L 1205 730 L 1175 730 L 1160 705 Z" fill="#365eff" stroke="#365eff" stroke-miterlimit="10" pointer-events="all"/><path d="M 1175 736 L 1205 736 L 1220 761 L 1205 786 L 1175 786 L 1160 761 Z" fill="#365eff" stroke="#365eff" stroke-miterlimit="10" pointer-events="all"/><path d="M 725 708 L 755 708 L 770 733 L 755 758 L 725 758 L 710 733 Z" fill="#365eff" stroke="#365eff" stroke-miterlimit="10" pointer-events="all"/><path d="M 775 680 L 805 680 L 820 705 L 805 730 L 775 730 L 760 705 Z" fill="#365eff" stroke="#365eff" stroke-miterlimit="10" pointer-events="all"/><path d="M 775 736 L 805 736 L 820 761 L 805 786 L 775 786 L 760 761 Z" fill="#365eff" stroke="#365eff" stroke-miterlimit="10" pointer-events="all"/><path d="M 625 708 L 655 708 L 670 733 L 655 758 L 625 758 L 610 733 Z" fill="#365eff" stroke="#365eff" stroke-miterlimit="10" pointer-events="all"/><path d="M 675 680 L 705 680 L 720 705 L 705 730 L 675 730 L 660 705 Z" fill="#365eff" stroke="#365eff" stroke-miterlimit="10" pointer-events="all"/><path d="M 675 736 L 705 736 L 720 761 L 705 786 L 675 786 L 660 761 Z" fill="#365eff" stroke="#365eff" stroke-miterlimit="10" pointer-events="all"/><path d="M 825 763 L 855 763 L 870 788 L 855 813 L 825 813 L 810 788 Z" fill="#365eff" stroke="#365eff" stroke-miterlimit="10" pointer-events="all"/><path d="M 925 763 L 955 763 L 970 788 L 955 813 L 925 813 L 910 788 Z" fill="#365eff" stroke="#365eff" stroke-miterlimit="10" pointer-events="all"/><path d="M 1025 763 L 1055 763 L 1070 788 L 1055 813 L 1025 813 L 1010 788 Z" fill="#365eff" stroke="#365eff" stroke-miterlimit="10" pointer-events="all"/><path d="M 1125 763 L 1155 763 L 1170 788 L 1155 813 L 1125 813 L 1110 788 Z" fill="#365eff" stroke="#365eff" stroke-miterlimit="10" pointer-events="all"/><path d="M 725 763 L 755 763 L 770 788 L 755 813 L 725 813 L 710 788 Z" fill="#365eff" stroke="#365eff" stroke-miterlimit="10" pointer-events="all"/><path d="M 625 763 L 655 763 L 670 788 L 655 813 L 625 813 L 610 788 Z" fill="#365eff" stroke="#365eff" stroke-miterlimit="10" pointer-events="all"/><path d="M 475 65 L 505 65 L 520 90 L 505 115 L 475 115 L 460 90 Z" fill="#6e94ff" stroke="#365eff" stroke-miterlimit="10" pointer-events="all"/><path d="M 525 37 L 555 37 L 570 62 L 555 87 L 525 87 L 510 62 Z" fill="#6e94ff" stroke="#365eff" stroke-miterlimit="10" pointer-events="all"/><path d="M 575 9 L 605 9 L 620 34 L 605 59 L 575 59 L 560 34 Z" fill="#6e94ff" stroke="#365eff" stroke-miterlimit="10" pointer-events="all"/><path d="M 325 149 L 355 149 L 370 174 L 355 199 L 325 199 L 310 174 Z" fill="#6e94ff" stroke="#365eff" stroke-miterlimit="10" pointer-events="all"/><path d="M 375 121 L 405 121 L 420 146 L 405 171 L 375 171 L 360 146 Z" fill="#6e94ff" stroke="#365eff" stroke-miterlimit="10" pointer-events="all"/><path d="M 425 93 L 455 93 L 470 118 L 455 143 L 425 143 L 410 118 Z" fill="#80a6ff" stroke="#365eff" stroke-miterlimit="10" pointer-events="all"/><path d="M 225 205 L 255 205 L 270 230 L 255 255 L 225 255 L 210 230 Z" fill="#6e94ff" stroke="#365eff" stroke-miterlimit="10" pointer-events="all"/><path d="M 275 177 L 305 177 L 320 202 L 305 227 L 275 227 L 260 202 Z" fill="#6e94ff" stroke="#365eff" stroke-miterlimit="10" pointer-events="all"/><path d="M 175 233 L 205 233 L 220 258 L 205 283 L 175 283 L 160 258 Z" fill="#80a6ff" stroke="#365eff" stroke-miterlimit="10" pointer-events="all"/><path d="M 75 288 L 105 288 L 120 313 L 105 338 L 75 338 L 60 313 Z" fill="#6e94ff" stroke="#365eff" stroke-miterlimit="10" pointer-events="all"/><path d="M 125 260 L 155 260 L 170 285 L 155 310 L 125 310 L 110 285 Z" fill="#6e94ff" stroke="#365eff" stroke-miterlimit="10" pointer-events="all"/><path d="M 25 316 L 55 316 L 70 341 L 55 366 L 25 366 L 10 341 Z" fill="#6e94ff" stroke="#365eff" stroke-miterlimit="10" pointer-events="all"/><path d="M 975 736 L 1005 736 L 1020 761 L 1005 786 L 975 786 L 960 761 Z" fill="#3b62ff" stroke="#365eff" stroke-miterlimit="10" transform="rotate(-180,990,761)" pointer-events="all"/><path d="M 925 764 L 955 764 L 970 789 L 955 814 L 925 814 L 910 789 Z" fill="#3b62ff" stroke="#365eff" stroke-miterlimit="10" transform="rotate(-180,940,789)" pointer-events="all"/><path d="M 925 708 L 955 708 L 970 733 L 955 758 L 925 758 L 910 733 Z" fill="#4d70ff" stroke="#365eff" stroke-miterlimit="10" transform="rotate(-180,940,733)" pointer-events="all"/><path d="M 875 736 L 905 736 L 920 761 L 905 786 L 875 786 L 860 761 Z" fill="#4d70ff" stroke="#365eff" stroke-miterlimit="10" transform="rotate(-180,890,761)" pointer-events="all"/><path d="M 825 764 L 855 764 L 870 789 L 855 814 L 825 814 L 810 789 Z" fill="#4d70ff" stroke="#365eff" stroke-miterlimit="10" transform="rotate(-180,840,789)" pointer-events="all"/><path d="M 825 708 L 855 708 L 870 733 L 855 758 L 825 758 L 810 733 Z" fill="#5482ff" stroke="#365eff" stroke-miterlimit="10" transform="rotate(-180,840,733)" pointer-events="all"/><path d="M 775 736 L 805 736 L 820 761 L 805 786 L 775 786 L 760 761 Z" fill="#5482ff" stroke="#365eff" stroke-miterlimit="10" transform="rotate(-180,790,761)" pointer-events="all"/><path d="M 725 764 L 755 764 L 770 789 L 755 814 L 725 814 L 710 789 Z" fill="#5482ff" stroke="#365eff" stroke-miterlimit="10" transform="rotate(-180,740,789)" pointer-events="all"/><path d="M 625 708 L 655 708 L 670 733 L 655 758 L 625 758 L 610 733 Z" fill="#80a6ff" stroke="#365eff" stroke-miterlimit="10" transform="rotate(-180,640,733)" pointer-events="all"/><path d="M 1075 736 L 1105 736 L 1120 761 L 1105 786 L 1075 786 L 1060 761 Z" fill="#3053e0" stroke="#365eff" stroke-miterlimit="10" transform="rotate(-180,1090,761)" pointer-events="all"/><path d="M 1025 764 L 1055 764 L 1070 789 L 1055 814 L 1025 814 L 1010 789 Z" fill="#3053e0" stroke="#365eff" stroke-miterlimit="10" transform="rotate(-180,1040,789)" pointer-events="all"/><path d="M 1025 708 L 1055 708 L 1070 733 L 1055 758 L 1025 758 L 1010 733 Z" fill="#3b62ff" stroke="#365eff" stroke-miterlimit="10" transform="rotate(-180,1040,733)" pointer-events="all"/><path d="M 1175 736 L 1205 736 L 1220 761 L 1205 786 L 1175 786 L 1160 761 Z" fill="#2642b3" stroke="#365eff" stroke-miterlimit="10" transform="rotate(-180,1190,761)" pointer-events="all"/><path d="M 1125 764 L 1155 764 L 1170 789 L 1155 814 L 1125 814 L 1110 789 Z" fill="#2642b3" stroke="#365eff" stroke-miterlimit="10" transform="rotate(-180,1140,789)" pointer-events="all"/><path d="M 1125 708 L 1155 708 L 1170 733 L 1155 758 L 1125 758 L 1110 733 Z" fill="#3053e0" stroke="#365eff" stroke-miterlimit="10" transform="rotate(-180,1140,733)" pointer-events="all"/><path d="M 1025 652 L 1055 652 L 1070 677 L 1055 702 L 1025 702 L 1010 677 Z" fill="#4d70ff" stroke="#365eff" stroke-miterlimit="10" transform="rotate(-180,1040,677)" pointer-events="all"/><path d="M 975 680 L 1005 680 L 1020 705 L 1005 730 L 975 730 L 960 705 Z" fill="#4d70ff" stroke="#365eff" stroke-miterlimit="10" transform="rotate(-180,990,705)" pointer-events="all"/><path d="M 975 624 L 1005 624 L 1020 649 L 1005 674 L 975 674 L 960 649 Z" fill="#5482ff" stroke="#365eff" stroke-miterlimit="10" transform="rotate(-180,990,649)" pointer-events="all"/><path d="M 925 652 L 955 652 L 970 677 L 955 702 L 925 702 L 910 677 Z" fill="#5482ff" stroke="#365eff" stroke-miterlimit="10" transform="rotate(-180,940,677)" pointer-events="all"/><path d="M 875 680 L 905 680 L 920 705 L 905 730 L 875 730 L 860 705 Z" fill="#5482ff" stroke="#365eff" stroke-miterlimit="10" transform="rotate(-180,890,705)" pointer-events="all"/><path d="M 775 624 L 805 624 L 820 649 L 805 674 L 775 674 L 760 649 Z" fill="#80a6ff" stroke="#365eff" stroke-miterlimit="10" transform="rotate(-180,790,649)" pointer-events="all"/><path d="M 725 652 L 755 652 L 770 677 L 755 702 L 725 702 L 710 677 Z" fill="#80a6ff" stroke="#365eff" stroke-miterlimit="10" transform="rotate(-180,740,677)" pointer-events="all"/><path d="M 675 680 L 705 680 L 720 705 L 705 730 L 675 730 L 660 705 Z" fill="#80a6ff" stroke="#365eff" stroke-miterlimit="10" transform="rotate(-180,690,705)" pointer-events="all"/><path d="M 675 624 L 705 624 L 720 649 L 705 674 L 675 674 L 660 649 Z" fill="#6e94ff" stroke="#365eff" stroke-miterlimit="10" transform="rotate(-180,690,649)" pointer-events="all"/><path d="M 1125 652 L 1155 652 L 1170 677 L 1155 702 L 1125 702 L 1110 677 Z" fill="#3b62ff" stroke="#365eff" stroke-miterlimit="10" transform="rotate(-180,1140,677)" pointer-events="all"/><path d="M 1075 680 L 1105 680 L 1120 705 L 1105 730 L 1075 730 L 1060 705 Z" fill="#3b62ff" stroke="#365eff" stroke-miterlimit="10" transform="rotate(-180,1090,705)" pointer-events="all"/><path d="M 1075 624 L 1105 624 L 1120 649 L 1105 674 L 1075 674 L 1060 649 Z" fill="#4d70ff" stroke="#365eff" stroke-miterlimit="10" transform="rotate(-180,1090,649)" pointer-events="all"/><path d="M 625 652 L 655 652 L 670 677 L 655 702 L 625 702 L 610 677 Z" fill="#80a6ff" stroke="#365eff" stroke-miterlimit="10" transform="rotate(-180,640,677)" pointer-events="all"/><path d="M 1175 680 L 1205 680 L 1220 705 L 1205 730 L 1175 730 L 1160 705 Z" fill="#3053e0" stroke="#365eff" stroke-miterlimit="10" transform="rotate(-180,1190,705)" pointer-events="all"/><path d="M 1175 624 L 1205 624 L 1220 649 L 1205 674 L 1175 674 L 1160 649 Z" fill="#3b62ff" stroke="#365eff" stroke-miterlimit="10" transform="rotate(-180,1190,649)" pointer-events="all"/><path d="M 925 540 L 955 540 L 970 565 L 955 590 L 925 590 L 910 565 Z" fill="#80a6ff" stroke="#365eff" stroke-miterlimit="10" transform="rotate(-180,940,565)" pointer-events="all"/><path d="M 875 568 L 905 568 L 920 593 L 905 618 L 875 618 L 860 593 Z" fill="#80a6ff" stroke="#365eff" stroke-miterlimit="10" transform="rotate(-180,890,593)" pointer-events="all"/><path d="M 825 596 L 855 596 L 870 621 L 855 646 L 825 646 L 810 621 Z" fill="#80a6ff" stroke="#365eff" stroke-miterlimit="10" transform="rotate(-180,840,621)" pointer-events="all"/><path d="M 825 540 L 855 540 L 870 565 L 855 590 L 825 590 L 810 565 Z" fill="#6e94ff" stroke="#365eff" stroke-miterlimit="10" transform="rotate(-180,840,565)" pointer-events="all"/><path d="M 775 568 L 805 568 L 820 593 L 805 618 L 775 618 L 760 593 Z" fill="#6e94ff" stroke="#365eff" stroke-miterlimit="10" transform="rotate(-180,790,593)" pointer-events="all"/><path d="M 725 596 L 755 596 L 770 621 L 755 646 L 725 646 L 710 621 Z" fill="#6e94ff" stroke="#365eff" stroke-miterlimit="10" transform="rotate(-180,740,621)" pointer-events="all"/><path d="M 725 540 L 755 540 L 770 565 L 755 590 L 725 590 L 710 565 Z" fill="#5482ff" stroke="#365eff" stroke-miterlimit="10" transform="rotate(-180,740,565)" pointer-events="all"/><path d="M 675 568 L 705 568 L 720 593 L 705 618 L 675 618 L 660 593 Z" fill="#5482ff" stroke="#365eff" stroke-miterlimit="10" transform="rotate(-180,690,593)" pointer-events="all"/><path d="M 625 596 L 655 596 L 670 621 L 655 646 L 625 646 L 610 621 Z" fill="#5482ff" stroke="#365eff" stroke-miterlimit="10" transform="rotate(-180,640,621)" pointer-events="all"/><path d="M 625 540 L 655 540 L 670 565 L 655 590 L 625 590 L 610 565 Z" fill="#4d70ff" stroke="#365eff" stroke-miterlimit="10" transform="rotate(-180,640,565)" pointer-events="all"/><path d="M 1075 568 L 1105 568 L 1120 593 L 1105 618 L 1075 618 L 1060 593 Z" fill="#5482ff" stroke="#365eff" stroke-miterlimit="10" transform="rotate(-180,1090,593)" pointer-events="all"/><path d="M 1025 596 L 1055 596 L 1070 621 L 1055 646 L 1025 646 L 1010 621 Z" fill="#5482ff" stroke="#365eff" stroke-miterlimit="10" transform="rotate(-180,1040,621)" pointer-events="all"/><path d="M 1175 568 L 1205 568 L 1220 593 L 1205 618 L 1175 618 L 1160 593 Z" fill="#4d70ff" stroke="#365eff" stroke-miterlimit="10" transform="rotate(-180,1190,593)" pointer-events="all"/><path d="M 1125 596 L 1155 596 L 1170 621 L 1155 646 L 1125 646 L 1110 621 Z" fill="#4d70ff" stroke="#365eff" stroke-miterlimit="10" transform="rotate(-180,1140,621)" pointer-events="all"/><path d="M 1125 540 L 1155 540 L 1170 565 L 1155 590 L 1125 590 L 1110 565 Z" fill="#5482ff" stroke="#365eff" stroke-miterlimit="10" transform="rotate(-180,1140,565)" pointer-events="all"/><path d="M 1025 485 L 1055 485 L 1070 510 L 1055 535 L 1025 535 L 1010 510 Z" fill="#80a6ff" stroke="#365eff" stroke-miterlimit="10" transform="rotate(-180,1040,510)" pointer-events="all"/><path d="M 975 513 L 1005 513 L 1020 538 L 1005 563 L 975 563 L 960 538 Z" fill="#80a6ff" stroke="#365eff" stroke-miterlimit="10" transform="rotate(-180,990,538)" pointer-events="all"/><path d="M 975 457 L 1005 457 L 1020 482 L 1005 507 L 975 507 L 960 482 Z" fill="#6e94ff" stroke="#365eff" stroke-miterlimit="10" transform="rotate(-180,990,482)" pointer-events="all"/><path d="M 925 485 L 955 485 L 970 510 L 955 535 L 925 535 L 910 510 Z" fill="#80a6ff" stroke="#365eff" stroke-miterlimit="10" transform="rotate(-180,940,510)" pointer-events="all"/><path d="M 875 513 L 905 513 L 920 538 L 905 563 L 875 563 L 860 538 Z" fill="#6e94ff" stroke="#365eff" stroke-miterlimit="10" transform="rotate(-180,890,538)" pointer-events="all"/><path d="M 875 457 L 905 457 L 920 482 L 905 507 L 875 507 L 860 482 Z" fill="#5482ff" stroke="#365eff" stroke-miterlimit="10" transform="rotate(-180,890,482)" pointer-events="all"/><path d="M 825 485 L 855 485 L 870 510 L 855 535 L 825 535 L 810 510 Z" fill="#5482ff" stroke="#365eff" stroke-miterlimit="10" transform="rotate(-180,840,510)" pointer-events="all"/><path d="M 775 513 L 805 513 L 820 538 L 805 563 L 775 563 L 760 538 Z" fill="#5482ff" stroke="#365eff" stroke-miterlimit="10" transform="rotate(-180,790,538)" pointer-events="all"/><path d="M 775 457 L 805 457 L 820 482 L 805 507 L 775 507 L 760 482 Z" fill="#4d70ff" stroke="#365eff" stroke-miterlimit="10" transform="rotate(-180,790,482)" pointer-events="all"/><path d="M 725 485 L 755 485 L 770 510 L 755 535 L 725 535 L 710 510 Z" fill="#4d70ff" stroke="#365eff" stroke-miterlimit="10" transform="rotate(-180,740,510)" pointer-events="all"/><path d="M 675 513 L 705 513 L 720 538 L 705 563 L 675 563 L 660 538 Z" fill="#4d70ff" stroke="#365eff" stroke-miterlimit="10" transform="rotate(-180,690,538)" pointer-events="all"/><path d="M 675 457 L 705 457 L 720 482 L 705 507 L 675 507 L 660 482 Z" fill="#365eff" stroke="#365eff" stroke-miterlimit="10" transform="rotate(-180,690,482)" pointer-events="all"/><path d="M 1075 457 L 1105 457 L 1120 482 L 1105 507 L 1075 507 L 1060 482 Z" fill="#80a6ff" stroke="#365eff" stroke-miterlimit="10" transform="rotate(-180,1090,482)" pointer-events="all"/><path d="M 625 484 L 655 484 L 670 509 L 655 534 L 625 534 L 610 509 Z" fill="#365eff" stroke="#365eff" stroke-miterlimit="10" transform="rotate(-180,640,509)" pointer-events="all"/><path d="M 1175 513 L 1205 513 L 1220 538 L 1205 563 L 1175 563 L 1160 538 Z" fill="#5482ff" stroke="#365eff" stroke-miterlimit="10" transform="rotate(-180,1190,538)" pointer-events="all"/><path d="M 1075 401 L 1105 401 L 1120 426 L 1105 451 L 1075 451 L 1060 426 Z" fill="#6e94ff" stroke="#365eff" stroke-miterlimit="10" transform="rotate(-180,1090,426)" pointer-events="all"/><path d="M 1025 429 L 1055 429 L 1070 454 L 1055 479 L 1025 479 L 1010 454 Z" fill="#6e94ff" stroke="#365eff" stroke-miterlimit="10" transform="rotate(-180,1040,454)" pointer-events="all"/><path d="M 1025 373 L 1055 373 L 1070 398 L 1055 423 L 1025 423 L 1010 398 Z" fill="#5482ff" stroke="#365eff" stroke-miterlimit="10" transform="rotate(-180,1040,398)" pointer-events="all"/><path d="M 975 401 L 1005 401 L 1020 426 L 1005 451 L 975 451 L 960 426 Z" fill="#5482ff" stroke="#365eff" stroke-miterlimit="10" transform="rotate(-180,990,426)" pointer-events="all"/><path d="M 925 429 L 955 429 L 970 454 L 955 479 L 925 479 L 910 454 Z" fill="#5482ff" stroke="#365eff" stroke-miterlimit="10" transform="rotate(-180,940,454)" pointer-events="all"/><path d="M 925 373 L 955 373 L 970 398 L 955 423 L 925 423 L 910 398 Z" fill="#4d70ff" stroke="#365eff" stroke-miterlimit="10" transform="rotate(-180,940,398)" pointer-events="all"/><path d="M 875 401 L 905 401 L 920 426 L 905 451 L 875 451 L 860 426 Z" fill="#4d70ff" stroke="#365eff" stroke-miterlimit="10" transform="rotate(-180,890,426)" pointer-events="all"/><path d="M 825 429 L 855 429 L 870 454 L 855 479 L 825 479 L 810 454 Z" fill="#4d70ff" stroke="#365eff" stroke-miterlimit="10" transform="rotate(-180,840,454)" pointer-events="all"/><path d="M 825 373 L 855 373 L 870 398 L 855 423 L 825 423 L 810 398 Z" fill="#365eff" stroke="#365eff" stroke-miterlimit="10" transform="rotate(-180,840,398)" pointer-events="all"/><path d="M 775 401 L 805 401 L 820 426 L 805 451 L 775 451 L 760 426 Z" fill="#365eff" stroke="#365eff" stroke-miterlimit="10" transform="rotate(-180,790,426)" pointer-events="all"/><path d="M 725 429 L 755 429 L 770 454 L 755 479 L 725 479 L 710 454 Z" fill="#365eff" stroke="#365eff" stroke-miterlimit="10" transform="rotate(-180,740,454)" pointer-events="all"/><path d="M 725 373 L 755 373 L 770 398 L 755 423 L 725 423 L 710 398 Z" fill="#365dfa" stroke="#365eff" stroke-miterlimit="10" transform="rotate(-180,740,398)" pointer-events="all"/><path d="M 1175 401 L 1205 401 L 1220 426 L 1205 451 L 1175 451 L 1160 426 Z" fill="#80a6ff" stroke="#365eff" stroke-miterlimit="10" transform="rotate(-180,1190,426)" pointer-events="all"/><path d="M 1125 429 L 1155 429 L 1170 454 L 1155 479 L 1125 479 L 1110 454 Z" fill="#80a6ff" stroke="#365eff" stroke-miterlimit="10" transform="rotate(-180,1140,454)" pointer-events="all"/><path d="M 1125 373 L 1155 373 L 1170 398 L 1155 423 L 1125 423 L 1110 398 Z" fill="#6e94ff" stroke="#365eff" stroke-miterlimit="10" transform="rotate(-180,1140,398)" pointer-events="all"/><path d="M 675 401 L 705 401 L 720 426 L 705 451 L 675 451 L 660 426 Z" fill="#365dfa" stroke="#365eff" stroke-miterlimit="10" transform="rotate(-180,690,426)" pointer-events="all"/><path d="M 625 428 L 655 428 L 670 453 L 655 478 L 625 478 L 610 453 Z" fill="#284feb" stroke="#365eff" stroke-miterlimit="10" transform="rotate(-180,640,453)" pointer-events="all"/><path d="M 625 372 L 655 372 L 670 397 L 655 422 L 625 422 L 610 397 Z" fill="#284feb" stroke="#365eff" stroke-miterlimit="10" transform="rotate(-180,640,397)" pointer-events="all"/><path d="M 1025 317 L 1055 317 L 1070 342 L 1055 367 L 1025 367 L 1010 342 Z" fill="#4d70ff" stroke="#365eff" stroke-miterlimit="10" transform="rotate(-180,1040,342)" pointer-events="all"/><path d="M 975 345 L 1005 345 L 1020 370 L 1005 395 L 975 395 L 960 370 Z" fill="#4d70ff" stroke="#365eff" stroke-miterlimit="10" transform="rotate(-180,990,370)" pointer-events="all"/><path d="M 975 289 L 1005 289 L 1020 314 L 1005 339 L 975 339 L 960 314 Z" fill="#365eff" stroke="#365eff" stroke-miterlimit="10" transform="rotate(-180,990,314)" pointer-events="all"/><path d="M 925 317 L 955 317 L 970 342 L 955 367 L 925 367 L 910 342 Z" fill="#365eff" stroke="#365eff" stroke-miterlimit="10" transform="rotate(-180,940,342)" pointer-events="all"/><path d="M 875 345 L 905 345 L 920 370 L 905 395 L 875 395 L 860 370 Z" fill="#4d70ff" stroke="#365eff" stroke-miterlimit="10" transform="rotate(-180,890,370)" pointer-events="all"/><path d="M 875 289 L 905 289 L 920 314 L 905 339 L 875 339 L 860 314 Z" fill="#365dfa" stroke="#365eff" stroke-miterlimit="10" transform="rotate(-180,890,314)" pointer-events="all"/><path d="M 825 317 L 855 317 L 870 342 L 855 367 L 825 367 L 810 342 Z" fill="#365dfa" stroke="#365eff" stroke-miterlimit="10" transform="rotate(-180,840,342)" pointer-events="all"/><path d="M 775 345 L 805 345 L 820 370 L 805 395 L 775 395 L 760 370 Z" fill="#284feb" stroke="#365eff" stroke-miterlimit="10" transform="rotate(-180,790,370)" pointer-events="all"/><path d="M 775 289 L 805 289 L 820 314 L 805 339 L 775 339 L 760 314 Z" fill="#284feb" stroke="#365eff" stroke-miterlimit="10" transform="rotate(-180,790,314)" pointer-events="all"/><path d="M 725 317 L 755 317 L 770 342 L 755 367 L 725 367 L 710 342 Z" fill="#284feb" stroke="#365eff" stroke-miterlimit="10" transform="rotate(-180,740,342)" pointer-events="all"/><path d="M 675 345 L 705 345 L 720 370 L 705 395 L 675 395 L 660 370 Z" fill="#284feb" stroke="#365eff" stroke-miterlimit="10" transform="rotate(-180,690,370)" pointer-events="all"/><path d="M 1125 317 L 1155 317 L 1170 342 L 1155 367 L 1125 367 L 1110 342 Z" fill="#5482ff" stroke="#365eff" stroke-miterlimit="10" transform="rotate(-180,1140,342)" pointer-events="all"/><path d="M 1075 345 L 1105 345 L 1120 370 L 1105 395 L 1075 395 L 1060 370 Z" fill="#5482ff" stroke="#365eff" stroke-miterlimit="10" transform="rotate(-180,1090,370)" pointer-events="all"/><path d="M 1075 289 L 1105 289 L 1120 314 L 1105 339 L 1075 339 L 1060 314 Z" fill="#4d70ff" stroke="#365eff" stroke-miterlimit="10" transform="rotate(-180,1090,314)" pointer-events="all"/><path d="M 1175 345 L 1205 345 L 1220 370 L 1205 395 L 1175 395 L 1160 370 Z" fill="#6e94ff" stroke="#365eff" stroke-miterlimit="10" transform="rotate(-180,1190,370)" pointer-events="all"/><path d="M 1175 289 L 1205 289 L 1220 314 L 1205 339 L 1175 339 L 1160 314 Z" fill="#5482ff" stroke="#365eff" stroke-miterlimit="10" transform="rotate(-180,1190,314)" pointer-events="all"/><path d="M 375 736 L 405 736 L 420 761 L 405 786 L 375 786 L 360 761 Z" fill="#5482ff" stroke="#365eff" stroke-miterlimit="10" transform="rotate(-180,390,761)" pointer-events="all"/><path d="M 325 764 L 355 764 L 370 789 L 355 814 L 325 814 L 310 789 Z" fill="#5482ff" stroke="#365eff" stroke-miterlimit="10" transform="rotate(-180,340,789)" pointer-events="all"/><path d="M 325 708 L 355 708 L 370 733 L 355 758 L 325 758 L 310 733 Z" fill="#4d70ff" stroke="#365eff" stroke-miterlimit="10" transform="rotate(-180,340,733)" pointer-events="all"/><path d="M 275 736 L 305 736 L 320 761 L 305 786 L 275 786 L 260 761 Z" fill="#4d70ff" stroke="#365eff" stroke-miterlimit="10" transform="rotate(-180,290,761)" pointer-events="all"/><path d="M 225 764 L 255 764 L 270 789 L 255 814 L 225 814 L 210 789 Z" fill="#4d70ff" stroke="#365eff" stroke-miterlimit="10" transform="rotate(-180,240,789)" pointer-events="all"/><path d="M 225 708 L 255 708 L 270 733 L 255 758 L 225 758 L 210 733 Z" fill="#365eff" stroke="#365eff" stroke-miterlimit="10" transform="rotate(-180,240,733)" pointer-events="all"/><path d="M 175 736 L 205 736 L 220 761 L 205 786 L 175 786 L 160 761 Z" fill="#365eff" stroke="#365eff" stroke-miterlimit="10" transform="rotate(-180,190,761)" pointer-events="all"/><path d="M 125 764 L 155 764 L 170 789 L 155 814 L 125 814 L 110 789 Z" fill="#4d70ff" stroke="#365eff" stroke-miterlimit="10" transform="rotate(-180,140,789)" pointer-events="all"/><path d="M 125 708 L 155 708 L 170 733 L 155 758 L 125 758 L 110 733 Z" fill="#365dfa" stroke="#365eff" stroke-miterlimit="10" transform="rotate(-180,140,733)" pointer-events="all"/><path d="M 75 736 L 105 736 L 120 761 L 105 786 L 75 786 L 60 761 Z" fill="#365dfa" stroke="#365eff" stroke-miterlimit="10" transform="rotate(-180,90,761)" pointer-events="all"/><path d="M 25 764 L 55 764 L 70 789 L 55 814 L 25 814 L 10 789 Z" fill="#365dfa" stroke="#365eff" stroke-miterlimit="10" transform="rotate(-180,40,789)" pointer-events="all"/><path d="M 25 708 L 55 708 L 70 733 L 55 758 L 25 758 L 10 733 Z" fill="#284feb" stroke="#365eff" stroke-miterlimit="10" transform="rotate(-180,40,733)" pointer-events="all"/><path d="M 475 736 L 505 736 L 520 761 L 505 786 L 475 786 L 460 761 Z" fill="#6e94ff" stroke="#365eff" stroke-miterlimit="10" transform="rotate(-180,490,761)" pointer-events="all"/><path d="M 425 764 L 455 764 L 470 789 L 455 814 L 425 814 L 410 789 Z" fill="#80a6ff" stroke="#365eff" stroke-miterlimit="10" transform="rotate(-180,440,789)" pointer-events="all"/><path d="M 425 708 L 455 708 L 470 733 L 455 758 L 425 758 L 410 733 Z" fill="#5482ff" stroke="#365eff" stroke-miterlimit="10" transform="rotate(-180,440,733)" pointer-events="all"/><path d="M 575 736 L 605 736 L 620 761 L 605 786 L 575 786 L 560 761 Z" fill="#80a6ff" stroke="#365eff" stroke-miterlimit="10" transform="rotate(-180,590,761)" pointer-events="all"/><path d="M 525 764 L 555 764 L 570 789 L 555 814 L 525 814 L 510 789 Z" fill="#80a6ff" stroke="#365eff" stroke-miterlimit="10" transform="rotate(-180,540,789)" pointer-events="all"/><path d="M 525 708 L 555 708 L 570 733 L 555 758 L 525 758 L 510 733 Z" fill="#6e94ff" stroke="#365eff" stroke-miterlimit="10" transform="rotate(-180,540,733)" pointer-events="all"/><path d="M 425 652 L 455 652 L 470 677 L 455 702 L 425 702 L 410 677 Z" fill="#4d70ff" stroke="#365eff" stroke-miterlimit="10" transform="rotate(-180,440,677)" pointer-events="all"/><path d="M 375 680 L 405 680 L 420 705 L 405 730 L 375 730 L 360 705 Z" fill="#4d70ff" stroke="#365eff" stroke-miterlimit="10" transform="rotate(-180,390,705)" pointer-events="all"/><path d="M 375 624 L 405 624 L 420 649 L 405 674 L 375 674 L 360 649 Z" fill="#365eff" stroke="#365eff" stroke-miterlimit="10" transform="rotate(-180,390,649)" pointer-events="all"/><path d="M 325 652 L 355 652 L 370 677 L 355 702 L 325 702 L 310 677 Z" fill="#365eff" stroke="#365eff" stroke-miterlimit="10" transform="rotate(-180,340,677)" pointer-events="all"/><path d="M 275 680 L 305 680 L 320 705 L 305 730 L 275 730 L 260 705 Z" fill="#365eff" stroke="#365eff" stroke-miterlimit="10" transform="rotate(-180,290,705)" pointer-events="all"/><path d="M 275 624 L 305 624 L 320 649 L 305 674 L 275 674 L 260 649 Z" fill="#284feb" stroke="#365eff" stroke-miterlimit="10" transform="rotate(-180,290,649)" pointer-events="all"/><path d="M 225 652 L 255 652 L 270 677 L 255 702 L 225 702 L 210 677 Z" fill="#365dfa" stroke="#365eff" stroke-miterlimit="10" transform="rotate(-180,240,677)" pointer-events="all"/><path d="M 175 680 L 205 680 L 220 705 L 205 730 L 175 730 L 160 705 Z" fill="#365dfa" stroke="#365eff" stroke-miterlimit="10" transform="rotate(-180,190,705)" pointer-events="all"/><path d="M 175 624 L 205 624 L 220 649 L 205 674 L 175 674 L 160 649 Z" fill="#284feb" stroke="#365eff" stroke-miterlimit="10" transform="rotate(-180,190,649)" pointer-events="all"/><path d="M 125 652 L 155 652 L 170 677 L 155 702 L 125 702 L 110 677 Z" fill="#284feb" stroke="#365eff" stroke-miterlimit="10" transform="rotate(-180,140,677)" pointer-events="all"/><path d="M 75 680 L 105 680 L 120 705 L 105 730 L 75 730 L 60 705 Z" fill="#284feb" stroke="#365eff" stroke-miterlimit="10" transform="rotate(-180,90,705)" pointer-events="all"/><path d="M 525 652 L 555 652 L 570 677 L 555 702 L 525 702 L 510 677 Z" fill="#5482ff" stroke="#365eff" stroke-miterlimit="10" transform="rotate(-180,540,677)" pointer-events="all"/><path d="M 475 680 L 505 680 L 520 705 L 505 730 L 475 730 L 460 705 Z" fill="#5482ff" stroke="#365eff" stroke-miterlimit="10" transform="rotate(-180,490,705)" pointer-events="all"/><path d="M 475 624 L 505 624 L 520 649 L 505 674 L 475 674 L 460 649 Z" fill="#4d70ff" stroke="#365eff" stroke-miterlimit="10" transform="rotate(-180,490,649)" pointer-events="all"/><path d="M 575 680 L 605 680 L 620 705 L 605 730 L 575 730 L 560 705 Z" fill="#6e94ff" stroke="#365eff" stroke-miterlimit="10" transform="rotate(-180,590,705)" pointer-events="all"/><path d="M 575 624 L 605 624 L 620 649 L 605 674 L 575 674 L 560 649 Z" fill="#5482ff" stroke="#365eff" stroke-miterlimit="10" transform="rotate(-180,590,649)" pointer-events="all"/><path d="M 375 568 L 405 568 L 420 593 L 405 618 L 375 618 L 360 593 Z" fill="#365dfa" stroke="#365eff" stroke-miterlimit="10" transform="rotate(-180,390,593)" pointer-events="all"/><path d="M 325 596 L 355 596 L 370 621 L 355 646 L 325 646 L 310 621 Z" fill="#365dfa" stroke="#365eff" stroke-miterlimit="10" transform="rotate(-180,340,621)" pointer-events="all"/><path d="M 325 540 L 355 540 L 370 565 L 355 590 L 325 590 L 310 565 Z" fill="#284feb" stroke="#365eff" stroke-miterlimit="10" transform="rotate(-180,340,565)" pointer-events="all"/><path d="M 275 568 L 305 568 L 320 593 L 305 618 L 275 618 L 260 593 Z" fill="#284feb" stroke="#365eff" stroke-miterlimit="10" transform="rotate(-180,290,593)" pointer-events="all"/><path d="M 225 596 L 255 596 L 270 621 L 255 646 L 225 646 L 210 621 Z" fill="#284feb" stroke="#365eff" stroke-miterlimit="10" transform="rotate(-180,240,621)" pointer-events="all"/><path d="M 475 568 L 505 568 L 520 593 L 505 618 L 475 618 L 460 593 Z" fill="#365eff" stroke="#365eff" stroke-miterlimit="10" transform="rotate(-180,490,593)" pointer-events="all"/><path d="M 425 596 L 455 596 L 470 621 L 455 646 L 425 646 L 410 621 Z" fill="#4d70ff" stroke="#365eff" stroke-miterlimit="10" transform="rotate(-180,440,621)" pointer-events="all"/><path d="M 425 540 L 455 540 L 470 565 L 455 590 L 425 590 L 410 565 Z" fill="#365dfa" stroke="#365eff" stroke-miterlimit="10" transform="rotate(-180,440,565)" pointer-events="all"/><path d="M 575 568 L 605 568 L 620 593 L 605 618 L 575 618 L 560 593 Z" fill="#4d70ff" stroke="#365eff" stroke-miterlimit="10" transform="rotate(-180,590,593)" pointer-events="all"/><path d="M 525 596 L 555 596 L 570 621 L 555 646 L 525 646 L 510 621 Z" fill="#4d70ff" stroke="#365eff" stroke-miterlimit="10" transform="rotate(-180,540,621)" pointer-events="all"/><path d="M 525 540 L 555 540 L 570 565 L 555 590 L 525 590 L 510 565 Z" fill="#365eff" stroke="#365eff" stroke-miterlimit="10" transform="rotate(-180,540,565)" pointer-events="all"/><path d="M 425 485 L 455 485 L 470 510 L 455 535 L 425 535 L 410 510 Z" fill="#284feb" stroke="#365eff" stroke-miterlimit="10" transform="rotate(-180,440,510)" pointer-events="all"/><path d="M 375 513 L 405 513 L 420 538 L 405 563 L 375 563 L 360 538 Z" fill="#284feb" stroke="#365eff" stroke-miterlimit="10" transform="rotate(-180,390,538)" pointer-events="all"/><path d="M 525 485 L 555 485 L 570 510 L 555 535 L 525 535 L 510 510 Z" fill="#365dfa" stroke="#365eff" stroke-miterlimit="10" transform="rotate(-180,540,510)" pointer-events="all"/><path d="M 475 513 L 505 513 L 520 538 L 505 563 L 475 563 L 460 538 Z" fill="#365dfa" stroke="#365eff" stroke-miterlimit="10" transform="rotate(-180,490,538)" pointer-events="all"/><path d="M 475 457 L 505 457 L 520 482 L 505 507 L 475 507 L 460 482 Z" fill="#284feb" stroke="#365eff" stroke-miterlimit="10" transform="rotate(-180,490,482)" pointer-events="all"/><path d="M 575 513 L 605 513 L 620 538 L 605 563 L 575 563 L 560 538 Z" fill="#4d70ff" stroke="#365eff" stroke-miterlimit="10" transform="rotate(-180,590,538)" pointer-events="all"/><path d="M 575 457 L 605 457 L 620 482 L 605 507 L 575 507 L 560 482 Z" fill="#365dfa" stroke="#365eff" stroke-miterlimit="10" transform="rotate(-180,590,482)" pointer-events="all"/><path d="M 575 401 L 605 401 L 620 426 L 605 451 L 575 451 L 560 426 Z" fill="#284feb" stroke="#365eff" stroke-miterlimit="10" transform="rotate(-180,590,426)" pointer-events="all"/><path d="M 525 429 L 555 429 L 570 454 L 555 479 L 525 479 L 510 454 Z" fill="#284feb" stroke="#365eff" stroke-miterlimit="10" transform="rotate(-180,540,454)" pointer-events="all"/><path d="M 975 233 L 1005 233 L 1020 258 L 1005 283 L 975 283 L 960 258 Z" fill="#365dfa" stroke="#365eff" stroke-miterlimit="10" transform="rotate(-180,990,258)" pointer-events="all"/><path d="M 925 261 L 955 261 L 970 286 L 955 311 L 925 311 L 910 286 Z" fill="#365dfa" stroke="#365eff" stroke-miterlimit="10" transform="rotate(-180,940,286)" pointer-events="all"/><path d="M 925 205 L 955 205 L 970 230 L 955 255 L 925 255 L 910 230 Z" fill="#284feb" stroke="#365eff" stroke-miterlimit="10" transform="rotate(-180,940,230)" pointer-events="all"/><path d="M 875 233 L 905 233 L 920 258 L 905 283 L 875 283 L 860 258 Z" fill="#284feb" stroke="#365eff" stroke-miterlimit="10" transform="rotate(-180,890,258)" pointer-events="all"/><path d="M 825 261 L 855 261 L 870 286 L 855 311 L 825 311 L 810 286 Z" fill="#284feb" stroke="#365eff" stroke-miterlimit="10" transform="rotate(-180,840,286)" pointer-events="all"/><path d="M 1075 233 L 1105 233 L 1120 258 L 1105 283 L 1075 283 L 1060 258 Z" fill="#365eff" stroke="#365eff" stroke-miterlimit="10" transform="rotate(-180,1090,258)" pointer-events="all"/><path d="M 1025 261 L 1055 261 L 1070 286 L 1055 311 L 1025 311 L 1010 286 Z" fill="#365eff" stroke="#365eff" stroke-miterlimit="10" transform="rotate(-180,1040,286)" pointer-events="all"/><path d="M 1025 205 L 1055 205 L 1070 230 L 1055 255 L 1025 255 L 1010 230 Z" fill="#284feb" stroke="#365eff" stroke-miterlimit="10" transform="rotate(-180,1040,230)" pointer-events="all"/><path d="M 1175 233 L 1205 233 L 1220 258 L 1205 283 L 1175 283 L 1160 258 Z" fill="#4d70ff" stroke="#365eff" stroke-miterlimit="10" transform="rotate(-180,1190,258)" pointer-events="all"/><path d="M 1125 261 L 1155 261 L 1170 286 L 1155 311 L 1125 311 L 1110 286 Z" fill="#4d70ff" stroke="#365eff" stroke-miterlimit="10" transform="rotate(-180,1140,286)" pointer-events="all"/><path d="M 1125 205 L 1155 205 L 1170 230 L 1155 255 L 1125 255 L 1110 230 Z" fill="#365eff" stroke="#365eff" stroke-miterlimit="10" transform="rotate(-180,1140,230)" pointer-events="all"/><path d="M 1025 149 L 1055 149 L 1070 174 L 1055 199 L 1025 199 L 1010 174 Z" fill="#284feb" stroke="#365eff" stroke-miterlimit="10" transform="rotate(-180,1040,174)" pointer-events="all"/><path d="M 975 177 L 1005 177 L 1020 202 L 1005 227 L 975 227 L 960 202 Z" fill="#284feb" stroke="#365eff" stroke-miterlimit="10" transform="rotate(-180,990,202)" pointer-events="all"/><path d="M 1125 149 L 1155 149 L 1170 174 L 1155 199 L 1125 199 L 1110 174 Z" fill="#365dfa" stroke="#365eff" stroke-miterlimit="10" transform="rotate(-180,1140,174)" pointer-events="all"/><path d="M 1075 177 L 1105 177 L 1120 202 L 1105 227 L 1075 227 L 1060 202 Z" fill="#365dfa" stroke="#365eff" stroke-miterlimit="10" transform="rotate(-180,1090,202)" pointer-events="all"/><path d="M 1075 121 L 1105 121 L 1120 146 L 1105 171 L 1075 171 L 1060 146 Z" fill="#284feb" stroke="#365eff" stroke-miterlimit="10" transform="rotate(-180,1090,146)" pointer-events="all"/><path d="M 1175 177 L 1205 177 L 1220 202 L 1205 227 L 1175 227 L 1160 202 Z" fill="#4d70ff" stroke="#365eff" stroke-miterlimit="10" transform="rotate(-180,1190,202)" pointer-events="all"/><path d="M 1175 121 L 1205 121 L 1220 146 L 1205 171 L 1175 171 L 1160 146 Z" fill="#365dfa" stroke="#365eff" stroke-miterlimit="10" transform="rotate(-180,1190,146)" pointer-events="all"/><path d="M 1175 65 L 1205 65 L 1220 90 L 1205 115 L 1175 115 L 1160 90 Z" fill="#284feb" stroke="#365eff" stroke-miterlimit="10" transform="rotate(-180,1190,90)" pointer-events="all"/><path d="M 1125 93 L 1155 93 L 1170 118 L 1155 143 L 1125 143 L 1110 118 Z" fill="#284feb" stroke="#365eff" stroke-miterlimit="10" transform="rotate(-180,1140,118)" pointer-events="all"/><path d="M 725 708 L 755 708 L 770 733 L 755 758 L 725 758 L 710 733 Z" fill="#6e94ff" stroke="#365eff" stroke-miterlimit="10" transform="rotate(-180,740,733)" pointer-events="all"/><path d="M 675 736 L 705 736 L 720 761 L 705 786 L 675 786 L 660 761 Z" fill="#6e94ff" stroke="#365eff" stroke-miterlimit="10" transform="rotate(-180,690,761)" pointer-events="all"/><path d="M 625 764 L 655 764 L 670 789 L 655 814 L 625 814 L 610 789 Z" fill="#6e94ff" stroke="#365eff" stroke-miterlimit="10" transform="rotate(-180,640,789)" pointer-events="all"/><path d="M 875 624 L 905 624 L 920 649 L 905 674 L 875 674 L 860 649 Z" fill="#6e94ff" stroke="#365eff" stroke-miterlimit="10" transform="rotate(-180,890,649)" pointer-events="all"/><path d="M 825 652 L 855 652 L 870 677 L 855 702 L 825 702 L 810 677 Z" fill="#80a6ff" stroke="#365eff" stroke-miterlimit="10" transform="rotate(-180,840,677)" pointer-events="all"/><path d="M 775 680 L 805 680 L 820 705 L 805 730 L 775 730 L 760 705 Z" fill="#6e94ff" stroke="#365eff" stroke-miterlimit="10" transform="rotate(-180,790,705)" pointer-events="all"/><path d="M 975 568 L 1005 568 L 1020 593 L 1005 618 L 975 618 L 960 593 Z" fill="#6e94ff" stroke="#365eff" stroke-miterlimit="10" transform="rotate(-180,990,593)" pointer-events="all"/><path d="M 925 596 L 955 596 L 970 621 L 955 646 L 925 646 L 910 621 Z" fill="#6e94ff" stroke="#365eff" stroke-miterlimit="10" transform="rotate(-180,940,621)" pointer-events="all"/><path d="M 1025 540 L 1055 540 L 1070 565 L 1055 590 L 1025 590 L 1010 565 Z" fill="#6e94ff" stroke="#365eff" stroke-miterlimit="10" transform="rotate(-180,1040,565)" pointer-events="all"/><path d="M 1125 485 L 1155 485 L 1170 510 L 1155 535 L 1125 535 L 1110 510 Z" fill="#80a6ff" stroke="#365eff" stroke-miterlimit="10" transform="rotate(-180,1140,510)" pointer-events="all"/><path d="M 1075 513 L 1105 513 L 1120 538 L 1105 563 L 1075 563 L 1060 538 Z" fill="#6e94ff" stroke="#365eff" stroke-miterlimit="10" transform="rotate(-180,1090,538)" pointer-events="all"/><path d="M 1175 457 L 1205 457 L 1220 482 L 1205 507 L 1175 507 L 1160 482 Z" fill="#6e94ff" stroke="#365eff" stroke-miterlimit="10" transform="rotate(-180,1190,482)" pointer-events="all"/></g></svg>